<mxfile host="Electron" agent="Mozilla/5.0 (Macintosh; Intel Mac OS X 10_15_7) AppleWebKit/537.36 (KHTML, like Gecko) draw.io/26.0.16 Chrome/132.0.6834.196 Electron/34.2.0 Safari/537.36" version="26.0.16" pages="5">
  <diagram name="inheritance/classes" id="X4m6LKrLwDku7PwRh3gT">
    <mxGraphModel dx="1383" dy="917" grid="1" gridSize="10" guides="1" tooltips="1" connect="1" arrows="1" fold="1" page="1" pageScale="1" pageWidth="827" pageHeight="1169" math="0" shadow="0">
      <root>
        <mxCell id="0" />
        <mxCell id="1" parent="0" />
        <mxCell id="ynuLZ_yIKiWYvVYC3faM-3" style="edgeStyle=orthogonalEdgeStyle;rounded=0;orthogonalLoop=1;jettySize=auto;html=1;entryX=0;entryY=0.5;entryDx=0;entryDy=0;" parent="1" source="ynuLZ_yIKiWYvVYC3faM-2" target="ynuLZ_yIKiWYvVYC3faM-4" edge="1">
          <mxGeometry relative="1" as="geometry">
            <mxPoint x="260" y="259.9999999999999" as="targetPoint" />
          </mxGeometry>
        </mxCell>
        <mxCell id="ynuLZ_yIKiWYvVYC3faM-2" value="QiskitBackendV2" style="rounded=0;whiteSpace=wrap;html=1;" parent="1" vertex="1">
          <mxGeometry x="80" y="240" width="160" height="40" as="geometry" />
        </mxCell>
        <mxCell id="ynuLZ_yIKiWYvVYC3faM-8" style="edgeStyle=orthogonalEdgeStyle;rounded=0;orthogonalLoop=1;jettySize=auto;html=1;entryX=0;entryY=0.5;entryDx=0;entryDy=0;" parent="1" source="ynuLZ_yIKiWYvVYC3faM-4" target="ynuLZ_yIKiWYvVYC3faM-6" edge="1">
          <mxGeometry relative="1" as="geometry" />
        </mxCell>
        <mxCell id="ynuLZ_yIKiWYvVYC3faM-9" style="edgeStyle=orthogonalEdgeStyle;rounded=0;orthogonalLoop=1;jettySize=auto;html=1;entryX=0;entryY=0.5;entryDx=0;entryDy=0;" parent="1" source="ynuLZ_yIKiWYvVYC3faM-4" target="ynuLZ_yIKiWYvVYC3faM-7" edge="1">
          <mxGeometry relative="1" as="geometry" />
        </mxCell>
        <mxCell id="MSX7NVjyZg03QfXRfxgp-6" style="edgeStyle=orthogonalEdgeStyle;rounded=0;orthogonalLoop=1;jettySize=auto;html=1;entryX=0;entryY=0.5;entryDx=0;entryDy=0;" edge="1" parent="1" source="ynuLZ_yIKiWYvVYC3faM-4" target="MSX7NVjyZg03QfXRfxgp-1">
          <mxGeometry relative="1" as="geometry" />
        </mxCell>
        <mxCell id="MSX7NVjyZg03QfXRfxgp-7" style="edgeStyle=orthogonalEdgeStyle;rounded=0;orthogonalLoop=1;jettySize=auto;html=1;entryX=0;entryY=0.5;entryDx=0;entryDy=0;" edge="1" parent="1" source="ynuLZ_yIKiWYvVYC3faM-4" target="MSX7NVjyZg03QfXRfxgp-3">
          <mxGeometry relative="1" as="geometry" />
        </mxCell>
        <mxCell id="MSX7NVjyZg03QfXRfxgp-8" style="edgeStyle=orthogonalEdgeStyle;rounded=0;orthogonalLoop=1;jettySize=auto;html=1;entryX=0;entryY=0.5;entryDx=0;entryDy=0;" edge="1" parent="1" source="ynuLZ_yIKiWYvVYC3faM-4" target="MSX7NVjyZg03QfXRfxgp-5">
          <mxGeometry relative="1" as="geometry" />
        </mxCell>
        <mxCell id="MSX7NVjyZg03QfXRfxgp-12" style="edgeStyle=orthogonalEdgeStyle;rounded=0;orthogonalLoop=1;jettySize=auto;html=1;exitX=1;exitY=0.5;exitDx=0;exitDy=0;entryX=0;entryY=0.5;entryDx=0;entryDy=0;" edge="1" parent="1" source="ynuLZ_yIKiWYvVYC3faM-4" target="ynuLZ_yIKiWYvVYC3faM-13">
          <mxGeometry relative="1" as="geometry" />
        </mxCell>
        <mxCell id="MSX7NVjyZg03QfXRfxgp-13" style="edgeStyle=orthogonalEdgeStyle;rounded=0;orthogonalLoop=1;jettySize=auto;html=1;entryX=0;entryY=0.5;entryDx=0;entryDy=0;" edge="1" parent="1" source="ynuLZ_yIKiWYvVYC3faM-4" target="ynuLZ_yIKiWYvVYC3faM-10">
          <mxGeometry relative="1" as="geometry" />
        </mxCell>
        <mxCell id="ynuLZ_yIKiWYvVYC3faM-4" value="PasqalBackend" style="whiteSpace=wrap;html=1;" parent="1" vertex="1">
          <mxGeometry x="280" y="240" width="120" height="40" as="geometry" />
        </mxCell>
        <mxCell id="mWA0IU9nGoGyT0TrNKWU-1" value="PasqalDevice" style="whiteSpace=wrap;html=1;" parent="1" vertex="1">
          <mxGeometry x="240" y="520" width="120" height="40" as="geometry" />
        </mxCell>
        <mxCell id="mWA0IU9nGoGyT0TrNKWU-2" value="PasqalLayout" style="whiteSpace=wrap;html=1;" parent="1" vertex="1">
          <mxGeometry x="280" y="600" width="120" height="40" as="geometry" />
        </mxCell>
        <mxCell id="mWA0IU9nGoGyT0TrNKWU-3" value="PasqalRegister" style="whiteSpace=wrap;html=1;" parent="1" vertex="1">
          <mxGeometry x="240" y="680" width="120" height="40" as="geometry" />
        </mxCell>
        <mxCell id="mWA0IU9nGoGyT0TrNKWU-4" value="QiskitSchedule" style="whiteSpace=wrap;html=1;" parent="1" vertex="1">
          <mxGeometry x="80" y="360" width="120" height="40" as="geometry" />
        </mxCell>
        <mxCell id="mWA0IU9nGoGyT0TrNKWU-5" value="QiskitPlay/QiskitPulse" style="whiteSpace=wrap;html=1;" parent="1" vertex="1">
          <mxGeometry x="80" y="440" width="160" height="40" as="geometry" />
        </mxCell>
        <mxCell id="iqXbD9ipRrFFd5o-tt8E-12" style="edgeStyle=orthogonalEdgeStyle;rounded=0;orthogonalLoop=1;jettySize=auto;html=1;entryX=0;entryY=0.5;entryDx=0;entryDy=0;fontFamily=Helvetica;fontSize=12;fontColor=default;fontStyle=0;" parent="1" source="H8I6yOq2aHhB6DYHVT-8-1" target="iqXbD9ipRrFFd5o-tt8E-11" edge="1">
          <mxGeometry relative="1" as="geometry" />
        </mxCell>
        <mxCell id="iqXbD9ipRrFFd5o-tt8E-13" style="edgeStyle=orthogonalEdgeStyle;rounded=0;orthogonalLoop=1;jettySize=auto;html=1;entryX=0;entryY=0.5;entryDx=0;entryDy=0;fontFamily=Helvetica;fontSize=12;fontColor=default;fontStyle=0;" parent="1" source="H8I6yOq2aHhB6DYHVT-8-1" target="iqXbD9ipRrFFd5o-tt8E-10" edge="1">
          <mxGeometry relative="1" as="geometry" />
        </mxCell>
        <mxCell id="H8I6yOq2aHhB6DYHVT-8-1" value="PasqalJob" style="whiteSpace=wrap;html=1;strokeColor=default;align=center;verticalAlign=middle;fontFamily=Helvetica;fontSize=12;fontColor=default;fontStyle=0;fillColor=default;" parent="1" vertex="1">
          <mxGeometry x="240" y="800" width="120" height="40" as="geometry" />
        </mxCell>
        <mxCell id="iqXbD9ipRrFFd5o-tt8E-2" style="edgeStyle=orthogonalEdgeStyle;rounded=0;orthogonalLoop=1;jettySize=auto;html=1;entryX=0;entryY=0.5;entryDx=0;entryDy=0;fontFamily=Helvetica;fontSize=12;fontColor=default;fontStyle=0;" parent="1" source="iqXbD9ipRrFFd5o-tt8E-1" target="mWA0IU9nGoGyT0TrNKWU-1" edge="1">
          <mxGeometry relative="1" as="geometry" />
        </mxCell>
        <mxCell id="iqXbD9ipRrFFd5o-tt8E-1" value="PulserDevice" style="whiteSpace=wrap;html=1;strokeColor=default;align=center;verticalAlign=middle;fontFamily=Helvetica;fontSize=12;fontColor=default;fontStyle=0;fillColor=default;" parent="1" vertex="1">
          <mxGeometry x="80" y="520" width="120" height="40" as="geometry" />
        </mxCell>
        <mxCell id="iqXbD9ipRrFFd5o-tt8E-4" style="edgeStyle=orthogonalEdgeStyle;rounded=0;orthogonalLoop=1;jettySize=auto;html=1;entryX=0;entryY=0.5;entryDx=0;entryDy=0;fontFamily=Helvetica;fontSize=12;fontColor=default;fontStyle=0;" parent="1" source="iqXbD9ipRrFFd5o-tt8E-3" target="mWA0IU9nGoGyT0TrNKWU-2" edge="1">
          <mxGeometry relative="1" as="geometry" />
        </mxCell>
        <mxCell id="iqXbD9ipRrFFd5o-tt8E-3" value="PulserRegisterLayout" style="whiteSpace=wrap;html=1;strokeColor=default;align=center;verticalAlign=middle;fontFamily=Helvetica;fontSize=12;fontColor=default;fontStyle=0;fillColor=default;" parent="1" vertex="1">
          <mxGeometry x="80" y="600" width="160" height="40" as="geometry" />
        </mxCell>
        <mxCell id="iqXbD9ipRrFFd5o-tt8E-6" style="edgeStyle=orthogonalEdgeStyle;rounded=0;orthogonalLoop=1;jettySize=auto;html=1;entryX=0;entryY=0.5;entryDx=0;entryDy=0;fontFamily=Helvetica;fontSize=12;fontColor=default;fontStyle=0;" parent="1" source="iqXbD9ipRrFFd5o-tt8E-5" target="mWA0IU9nGoGyT0TrNKWU-3" edge="1">
          <mxGeometry relative="1" as="geometry" />
        </mxCell>
        <mxCell id="iqXbD9ipRrFFd5o-tt8E-5" value="PulserRegister" style="whiteSpace=wrap;html=1;strokeColor=default;align=center;verticalAlign=middle;fontFamily=Helvetica;fontSize=12;fontColor=default;fontStyle=0;fillColor=default;" parent="1" vertex="1">
          <mxGeometry x="80" y="680" width="120" height="40" as="geometry" />
        </mxCell>
        <mxCell id="iqXbD9ipRrFFd5o-tt8E-8" style="edgeStyle=orthogonalEdgeStyle;rounded=0;orthogonalLoop=1;jettySize=auto;html=1;entryX=0;entryY=0.5;entryDx=0;entryDy=0;fontFamily=Helvetica;fontSize=12;fontColor=default;fontStyle=0;" parent="1" source="iqXbD9ipRrFFd5o-tt8E-7" target="H8I6yOq2aHhB6DYHVT-8-1" edge="1">
          <mxGeometry relative="1" as="geometry" />
        </mxCell>
        <mxCell id="iqXbD9ipRrFFd5o-tt8E-7" value="QiskitJob" style="whiteSpace=wrap;html=1;strokeColor=default;align=center;verticalAlign=middle;fontFamily=Helvetica;fontSize=12;fontColor=default;fontStyle=0;fillColor=default;" parent="1" vertex="1">
          <mxGeometry x="80" y="800" width="120" height="40" as="geometry" />
        </mxCell>
        <mxCell id="iqXbD9ipRrFFd5o-tt8E-9" value="QiskitResult" style="whiteSpace=wrap;html=1;strokeColor=default;align=center;verticalAlign=middle;fontFamily=Helvetica;fontSize=12;fontColor=default;fontStyle=0;fillColor=default;" parent="1" vertex="1">
          <mxGeometry x="80" y="920" width="120" height="40" as="geometry" />
        </mxCell>
        <mxCell id="iqXbD9ipRrFFd5o-tt8E-10" value="PasqalLocalJob" style="whiteSpace=wrap;html=1;strokeColor=default;align=center;verticalAlign=middle;fontFamily=Helvetica;fontSize=12;fontColor=default;fontStyle=0;fillColor=default;" parent="1" vertex="1">
          <mxGeometry x="400" y="840" width="120" height="40" as="geometry" />
        </mxCell>
        <mxCell id="iqXbD9ipRrFFd5o-tt8E-11" value="PasqalRemoteJob" style="whiteSpace=wrap;html=1;strokeColor=default;align=center;verticalAlign=middle;fontFamily=Helvetica;fontSize=12;fontColor=default;fontStyle=0;fillColor=default;" parent="1" vertex="1">
          <mxGeometry x="400" y="760" width="120" height="40" as="geometry" />
        </mxCell>
        <mxCell id="MSX7NVjyZg03QfXRfxgp-10" value="Remote backends" style="swimlane;whiteSpace=wrap;html=1;dashed=1;strokeWidth=2;" vertex="1" parent="1">
          <mxGeometry x="460" y="40" width="200" height="330" as="geometry" />
        </mxCell>
        <mxCell id="ynuLZ_yIKiWYvVYC3faM-6" value="&lt;i&gt;PasqalRemoteBackend&lt;/i&gt;" style="whiteSpace=wrap;html=1;" parent="MSX7NVjyZg03QfXRfxgp-10" vertex="1">
          <mxGeometry x="20" y="40" width="160" height="40" as="geometry" />
        </mxCell>
        <mxCell id="MSX7NVjyZg03QfXRfxgp-1" value="EmuTnBackend" style="whiteSpace=wrap;html=1;" vertex="1" parent="MSX7NVjyZg03QfXRfxgp-10">
          <mxGeometry x="20" y="120" width="160" height="40" as="geometry" />
        </mxCell>
        <mxCell id="MSX7NVjyZg03QfXRfxgp-3" value="EmuFreeBackend" style="whiteSpace=wrap;html=1;" vertex="1" parent="MSX7NVjyZg03QfXRfxgp-10">
          <mxGeometry x="20" y="200" width="160" height="40" as="geometry" />
        </mxCell>
        <mxCell id="MSX7NVjyZg03QfXRfxgp-5" value="QPUBackend" style="whiteSpace=wrap;html=1;" vertex="1" parent="MSX7NVjyZg03QfXRfxgp-10">
          <mxGeometry x="20" y="280" width="160" height="40" as="geometry" />
        </mxCell>
        <mxCell id="MSX7NVjyZg03QfXRfxgp-11" value="Local backends" style="swimlane;whiteSpace=wrap;html=1;fillColor=none;dashed=1;strokeWidth=2;" vertex="1" parent="1">
          <mxGeometry x="460" y="400" width="200" height="270" as="geometry" />
        </mxCell>
        <mxCell id="ynuLZ_yIKiWYvVYC3faM-7" value="&lt;i&gt;PasqalLocalBackend&lt;/i&gt;" style="whiteSpace=wrap;html=1;" parent="MSX7NVjyZg03QfXRfxgp-11" vertex="1">
          <mxGeometry x="20" y="50" width="160" height="40" as="geometry" />
        </mxCell>
        <mxCell id="ynuLZ_yIKiWYvVYC3faM-10" value="QutipEmulatorBackend" style="whiteSpace=wrap;html=1;" parent="MSX7NVjyZg03QfXRfxgp-11" vertex="1">
          <mxGeometry x="20" y="210" width="160" height="40" as="geometry" />
        </mxCell>
        <mxCell id="ynuLZ_yIKiWYvVYC3faM-13" value="EmuMpsBackend" style="whiteSpace=wrap;html=1;" parent="MSX7NVjyZg03QfXRfxgp-11" vertex="1">
          <mxGeometry x="20" y="130" width="160" height="40" as="geometry" />
        </mxCell>
      </root>
    </mxGraphModel>
  </diagram>
  <diagram id="MB6Q9WGUXujoVHWANoE3" name="PasqalBackend relations">
    <mxGraphModel dx="1308" dy="871" grid="1" gridSize="10" guides="1" tooltips="1" connect="1" arrows="1" fold="1" page="1" pageScale="1" pageWidth="827" pageHeight="1169" math="0" shadow="0">
      <root>
        <mxCell id="0" />
        <mxCell id="1" parent="0" />
        <mxCell id="af0SoJfA3AKH5cwj0E5H-1" value="PasqalBackend" style="swimlane;fontStyle=0;childLayout=stackLayout;horizontal=1;startSize=26;horizontalStack=0;resizeParent=1;resizeParentMax=0;resizeLast=0;collapsible=1;marginBottom=0;html=1;" parent="1" vertex="1">
          <mxGeometry x="40" y="200" width="140" height="104" as="geometry" />
        </mxCell>
        <mxCell id="af0SoJfA3AKH5cwj0E5H-4" value="args" style="text;strokeColor=none;fillColor=none;align=left;verticalAlign=top;spacingLeft=4;spacingRight=4;overflow=hidden;rotatable=0;points=[[0,0.5],[1,0.5]];portConstraint=eastwest;whiteSpace=wrap;html=1;" parent="af0SoJfA3AKH5cwj0E5H-1" vertex="1">
          <mxGeometry y="26" width="140" height="26" as="geometry" />
        </mxCell>
        <mxCell id="af0SoJfA3AKH5cwj0E5H-2" value="attributes" style="text;strokeColor=none;fillColor=none;align=left;verticalAlign=top;spacingLeft=4;spacingRight=4;overflow=hidden;rotatable=0;points=[[0,0.5],[1,0.5]];portConstraint=eastwest;whiteSpace=wrap;html=1;" parent="af0SoJfA3AKH5cwj0E5H-1" vertex="1">
          <mxGeometry y="52" width="140" height="26" as="geometry" />
        </mxCell>
        <mxCell id="af0SoJfA3AKH5cwj0E5H-3" value="methods" style="text;strokeColor=none;fillColor=none;align=left;verticalAlign=top;spacingLeft=4;spacingRight=4;overflow=hidden;rotatable=0;points=[[0,0.5],[1,0.5]];portConstraint=eastwest;whiteSpace=wrap;html=1;" parent="af0SoJfA3AKH5cwj0E5H-1" vertex="1">
          <mxGeometry y="78" width="140" height="26" as="geometry" />
        </mxCell>
        <mxCell id="af0SoJfA3AKH5cwj0E5H-5" value="methods" style="swimlane;fontStyle=0;childLayout=stackLayout;horizontal=1;startSize=26;horizontalStack=0;resizeParent=1;resizeParentMax=0;resizeLast=0;collapsible=1;marginBottom=0;html=1;" parent="1" vertex="1">
          <mxGeometry x="130" y="550" width="140" height="78" as="geometry" />
        </mxCell>
        <mxCell id="af0SoJfA3AKH5cwj0E5H-6" value="device: PasqalDevice" style="text;strokeColor=none;fillColor=none;align=left;verticalAlign=top;spacingLeft=4;spacingRight=4;overflow=hidden;rotatable=0;points=[[0,0.5],[1,0.5]];portConstraint=eastwest;whiteSpace=wrap;html=1;" parent="af0SoJfA3AKH5cwj0E5H-5" vertex="1">
          <mxGeometry y="26" width="140" height="26" as="geometry" />
        </mxCell>
        <mxCell id="af0SoJfA3AKH5cwj0E5H-7" value="run: PasqalJob" style="text;strokeColor=none;fillColor=none;align=left;verticalAlign=top;spacingLeft=4;spacingRight=4;overflow=hidden;rotatable=0;points=[[0,0.5],[1,0.5]];portConstraint=eastwest;whiteSpace=wrap;html=1;" parent="af0SoJfA3AKH5cwj0E5H-5" vertex="1">
          <mxGeometry y="52" width="140" height="26" as="geometry" />
        </mxCell>
        <mxCell id="af0SoJfA3AKH5cwj0E5H-9" style="edgeStyle=orthogonalEdgeStyle;rounded=0;orthogonalLoop=1;jettySize=auto;html=1;entryX=0.5;entryY=0;entryDx=0;entryDy=0;" parent="1" source="af0SoJfA3AKH5cwj0E5H-3" target="af0SoJfA3AKH5cwj0E5H-5" edge="1">
          <mxGeometry relative="1" as="geometry" />
        </mxCell>
        <mxCell id="af0SoJfA3AKH5cwj0E5H-10" value="attributes" style="swimlane;fontStyle=0;childLayout=stackLayout;horizontal=1;startSize=26;horizontalStack=0;resizeParent=1;resizeParentMax=0;resizeLast=0;collapsible=1;marginBottom=0;html=1;" parent="1" vertex="1">
          <mxGeometry x="280" y="400" width="160" height="130" as="geometry" />
        </mxCell>
        <mxCell id="af0SoJfA3AKH5cwj0E5H-11" value="_device: PasqalDevice" style="text;strokeColor=none;fillColor=none;align=left;verticalAlign=top;spacingLeft=4;spacingRight=4;overflow=hidden;rotatable=0;points=[[0,0.5],[1,0.5]];portConstraint=eastwest;whiteSpace=wrap;html=1;" parent="af0SoJfA3AKH5cwj0E5H-10" vertex="1">
          <mxGeometry y="26" width="160" height="26" as="geometry" />
        </mxCell>
        <mxCell id="af0SoJfA3AKH5cwj0E5H-12" value="_layout: PasqalLayout" style="text;strokeColor=none;fillColor=none;align=left;verticalAlign=top;spacingLeft=4;spacingRight=4;overflow=hidden;rotatable=0;points=[[0,0.5],[1,0.5]];portConstraint=eastwest;whiteSpace=wrap;html=1;" parent="af0SoJfA3AKH5cwj0E5H-10" vertex="1">
          <mxGeometry y="52" width="160" height="26" as="geometry" />
        </mxCell>
        <mxCell id="af0SoJfA3AKH5cwj0E5H-13" value="name: str" style="text;strokeColor=none;fillColor=none;align=left;verticalAlign=top;spacingLeft=4;spacingRight=4;overflow=hidden;rotatable=0;points=[[0,0.5],[1,0.5]];portConstraint=eastwest;whiteSpace=wrap;html=1;" parent="af0SoJfA3AKH5cwj0E5H-10" vertex="1">
          <mxGeometry y="78" width="160" height="26" as="geometry" />
        </mxCell>
        <mxCell id="af0SoJfA3AKH5cwj0E5H-34" value="backend: str" style="text;strokeColor=none;fillColor=none;align=left;verticalAlign=top;spacingLeft=4;spacingRight=4;overflow=hidden;rotatable=0;points=[[0,0.5],[1,0.5]];portConstraint=eastwest;whiteSpace=wrap;html=1;" parent="af0SoJfA3AKH5cwj0E5H-10" vertex="1">
          <mxGeometry y="104" width="160" height="26" as="geometry" />
        </mxCell>
        <mxCell id="af0SoJfA3AKH5cwj0E5H-18" style="edgeStyle=orthogonalEdgeStyle;rounded=0;orthogonalLoop=1;jettySize=auto;html=1;entryX=0.5;entryY=0;entryDx=0;entryDy=0;fontFamily=Helvetica;fontSize=12;fontColor=default;fontStyle=0;" parent="1" source="af0SoJfA3AKH5cwj0E5H-2" target="af0SoJfA3AKH5cwj0E5H-10" edge="1">
          <mxGeometry relative="1" as="geometry" />
        </mxCell>
        <mxCell id="af0SoJfA3AKH5cwj0E5H-19" value="args" style="swimlane;fontStyle=0;childLayout=stackLayout;horizontal=1;startSize=26;horizontalStack=0;resizeParent=1;resizeParentMax=0;resizeLast=0;collapsible=1;marginBottom=0;html=1;" parent="1" vertex="1">
          <mxGeometry x="440" y="282" width="160" height="104" as="geometry" />
        </mxCell>
        <mxCell id="af0SoJfA3AKH5cwj0E5H-20" value="layout: PasqalLayout" style="text;strokeColor=none;fillColor=none;align=left;verticalAlign=top;spacingLeft=4;spacingRight=4;overflow=hidden;rotatable=0;points=[[0,0.5],[1,0.5]];portConstraint=eastwest;whiteSpace=wrap;html=1;" parent="af0SoJfA3AKH5cwj0E5H-19" vertex="1">
          <mxGeometry y="26" width="160" height="26" as="geometry" />
        </mxCell>
        <mxCell id="af0SoJfA3AKH5cwj0E5H-21" value="device: PasqalDevice" style="text;strokeColor=none;fillColor=none;align=left;verticalAlign=top;spacingLeft=4;spacingRight=4;overflow=hidden;rotatable=0;points=[[0,0.5],[1,0.5]];portConstraint=eastwest;whiteSpace=wrap;html=1;" parent="af0SoJfA3AKH5cwj0E5H-19" vertex="1">
          <mxGeometry y="52" width="160" height="26" as="geometry" />
        </mxCell>
        <mxCell id="af0SoJfA3AKH5cwj0E5H-33" value="backend: str" style="text;strokeColor=none;fillColor=none;align=left;verticalAlign=top;spacingLeft=4;spacingRight=4;overflow=hidden;rotatable=0;points=[[0,0.5],[1,0.5]];portConstraint=eastwest;whiteSpace=wrap;html=1;" parent="af0SoJfA3AKH5cwj0E5H-19" vertex="1">
          <mxGeometry y="78" width="160" height="26" as="geometry" />
        </mxCell>
        <mxCell id="af0SoJfA3AKH5cwj0E5H-23" style="edgeStyle=orthogonalEdgeStyle;rounded=0;orthogonalLoop=1;jettySize=auto;html=1;entryX=0.5;entryY=0;entryDx=0;entryDy=0;fontFamily=Helvetica;fontSize=12;fontColor=default;fontStyle=0;" parent="1" source="af0SoJfA3AKH5cwj0E5H-4" target="af0SoJfA3AKH5cwj0E5H-19" edge="1">
          <mxGeometry relative="1" as="geometry" />
        </mxCell>
        <mxCell id="af0SoJfA3AKH5cwj0E5H-24" value="args" style="swimlane;fontStyle=0;childLayout=stackLayout;horizontal=1;startSize=26;horizontalStack=0;resizeParent=1;resizeParentMax=0;resizeLast=0;collapsible=1;marginBottom=0;html=1;" parent="1" vertex="1">
          <mxGeometry x="290" y="640" width="400" height="78" as="geometry" />
        </mxCell>
        <mxCell id="af0SoJfA3AKH5cwj0E5H-25" value="run_input: QiskitQuantumCircuit | QiskitSchedule | QiskitScheduleBlock" style="text;strokeColor=none;fillColor=none;align=left;verticalAlign=top;spacingLeft=4;spacingRight=4;overflow=hidden;rotatable=0;points=[[0,0.5],[1,0.5]];portConstraint=eastwest;whiteSpace=wrap;html=1;" parent="af0SoJfA3AKH5cwj0E5H-24" vertex="1">
          <mxGeometry y="26" width="400" height="26" as="geometry" />
        </mxCell>
        <mxCell id="af0SoJfA3AKH5cwj0E5H-28" value="register: PasqalRegister" style="text;strokeColor=none;fillColor=none;align=left;verticalAlign=top;spacingLeft=4;spacingRight=4;overflow=hidden;rotatable=0;points=[[0,0.5],[1,0.5]];portConstraint=eastwest;whiteSpace=wrap;html=1;" parent="af0SoJfA3AKH5cwj0E5H-24" vertex="1">
          <mxGeometry y="52" width="400" height="26" as="geometry" />
        </mxCell>
        <mxCell id="af0SoJfA3AKH5cwj0E5H-30" style="edgeStyle=orthogonalEdgeStyle;rounded=0;orthogonalLoop=1;jettySize=auto;html=1;entryX=0.5;entryY=0;entryDx=0;entryDy=0;fontFamily=Helvetica;fontSize=12;fontColor=default;fontStyle=0;" parent="1" source="af0SoJfA3AKH5cwj0E5H-7" target="af0SoJfA3AKH5cwj0E5H-24" edge="1">
          <mxGeometry relative="1" as="geometry" />
        </mxCell>
        <mxCell id="af0SoJfA3AKH5cwj0E5H-32" value="&lt;h1 style=&quot;margin-top: 0px;&quot;&gt;PasqalBackend&lt;/h1&gt;&lt;p&gt;Defines PasqalBackend class structure&lt;/p&gt;" style="text;html=1;whiteSpace=wrap;overflow=hidden;rounded=0;fontFamily=Helvetica;fontSize=12;fontColor=default;fontStyle=0;" parent="1" vertex="1">
          <mxGeometry x="40" y="40" width="240" height="120" as="geometry" />
        </mxCell>
      </root>
    </mxGraphModel>
  </diagram>
  <diagram id="9DvkTdYDK_hXoEfJ7Mpa" name="activity diagram (core)">
    <mxGraphModel dx="1314" dy="871" grid="1" gridSize="10" guides="1" tooltips="1" connect="1" arrows="1" fold="1" page="1" pageScale="1" pageWidth="827" pageHeight="1169" math="0" shadow="0">
      <root>
        <mxCell id="0" />
        <mxCell id="1" parent="0" />
        <mxCell id="NhLIoWsZ-rhti_d10mlp-3" value="user" style="shape=umlActor;verticalLabelPosition=bottom;verticalAlign=top;html=1;strokeColor=default;align=center;fontFamily=Helvetica;fontSize=12;fontColor=default;fontStyle=0;fillColor=default;" parent="1" vertex="1">
          <mxGeometry x="84.25" y="210" width="30" height="60" as="geometry" />
        </mxCell>
        <mxCell id="s2lIr1NxqmbmZ7W-PM-g-3" value="" style="ellipse;html=1;shape=startState;fillColor=#000000;strokeColor=#ff0000;align=center;verticalAlign=middle;fontFamily=Helvetica;fontSize=12;fontColor=default;fontStyle=0;" parent="1" vertex="1">
          <mxGeometry x="129" y="220" width="30" height="30" as="geometry" />
        </mxCell>
        <mxCell id="s2lIr1NxqmbmZ7W-PM-g-4" value="" style="edgeStyle=orthogonalEdgeStyle;html=1;verticalAlign=bottom;endArrow=open;endSize=8;strokeColor=#ff0000;rounded=0;fontFamily=Helvetica;fontSize=12;fontColor=default;fontStyle=0;entryX=0.5;entryY=0;entryDx=0;entryDy=0;" parent="1" source="s2lIr1NxqmbmZ7W-PM-g-3" target="sWB14MhDj_UWIPNvyOvW-1" edge="1">
          <mxGeometry relative="1" as="geometry">
            <mxPoint x="144" y="290.0000000000001" as="targetPoint" />
          </mxGeometry>
        </mxCell>
        <mxCell id="s2lIr1NxqmbmZ7W-PM-g-16" value="" style="rhombus;whiteSpace=wrap;html=1;fontColor=#000000;fillColor=#ffffc0;strokeColor=#ff0000;align=center;verticalAlign=middle;fontFamily=Helvetica;fontSize=12;fontStyle=0;" parent="1" vertex="1">
          <mxGeometry x="103.75" y="1340" width="80" height="40" as="geometry" />
        </mxCell>
        <mxCell id="s2lIr1NxqmbmZ7W-PM-g-17" value="[no QiskitSchedule defined]" style="edgeStyle=orthogonalEdgeStyle;html=1;align=left;verticalAlign=bottom;endArrow=open;endSize=8;strokeColor=#ff0000;rounded=0;fontFamily=Helvetica;fontSize=12;fontColor=default;fontStyle=0;entryX=0;entryY=0.5;entryDx=0;entryDy=0;" parent="1" source="s2lIr1NxqmbmZ7W-PM-g-16" target="s2lIr1NxqmbmZ7W-PM-g-24" edge="1">
          <mxGeometry x="-1" relative="1" as="geometry">
            <mxPoint x="363.75" y="1360" as="targetPoint" />
          </mxGeometry>
        </mxCell>
        <mxCell id="s2lIr1NxqmbmZ7W-PM-g-18" value="[has QiskitSchedule]" style="edgeStyle=orthogonalEdgeStyle;html=1;align=left;verticalAlign=top;endArrow=open;endSize=8;strokeColor=#ff0000;rounded=0;fontFamily=Helvetica;fontSize=12;fontColor=default;fontStyle=0;entryX=0.5;entryY=0;entryDx=0;entryDy=0;" parent="1" source="s2lIr1NxqmbmZ7W-PM-g-16" target="s2lIr1NxqmbmZ7W-PM-g-21" edge="1">
          <mxGeometry x="-1" relative="1" as="geometry">
            <mxPoint x="143.75" y="1420" as="targetPoint" />
          </mxGeometry>
        </mxCell>
        <mxCell id="s2lIr1NxqmbmZ7W-PM-g-19" value="call &lt;font face=&quot;Menlo&quot;&gt;PasqalBackend&lt;/font&gt;&#39;s run method" style="rounded=1;whiteSpace=wrap;html=1;arcSize=40;fontColor=#000000;fillColor=#ffffc0;strokeColor=#ff0000;align=center;verticalAlign=middle;fontFamily=Helvetica;fontSize=12;fontStyle=0;" parent="1" vertex="1">
          <mxGeometry x="43.75" y="1550" width="200" height="40" as="geometry" />
        </mxCell>
        <mxCell id="s2lIr1NxqmbmZ7W-PM-g-20" value="" style="edgeStyle=orthogonalEdgeStyle;html=1;verticalAlign=bottom;endArrow=open;endSize=8;strokeColor=#ff0000;rounded=0;fontFamily=Helvetica;fontSize=12;fontColor=default;fontStyle=0;entryX=0.5;entryY=0;entryDx=0;entryDy=0;" parent="1" source="s2lIr1NxqmbmZ7W-PM-g-19" target="s2lIr1NxqmbmZ7W-PM-g-28" edge="1">
          <mxGeometry relative="1" as="geometry">
            <mxPoint x="-46.25" y="1700" as="targetPoint" />
          </mxGeometry>
        </mxCell>
        <mxCell id="s2lIr1NxqmbmZ7W-PM-g-21" value="" style="rhombus;whiteSpace=wrap;html=1;fontColor=#000000;fillColor=#ffffc0;strokeColor=#ff0000;align=center;verticalAlign=middle;fontFamily=Helvetica;fontSize=12;fontStyle=0;" parent="1" vertex="1">
          <mxGeometry x="103.75" y="1459.96" width="80" height="40" as="geometry" />
        </mxCell>
        <mxCell id="s2lIr1NxqmbmZ7W-PM-g-22" value="[no PasqalRegister defined]" style="edgeStyle=orthogonalEdgeStyle;html=1;align=left;verticalAlign=bottom;endArrow=open;endSize=8;strokeColor=#ff0000;rounded=0;fontFamily=Helvetica;fontSize=12;fontColor=default;fontStyle=0;entryX=0;entryY=0.5;entryDx=0;entryDy=0;" parent="1" source="s2lIr1NxqmbmZ7W-PM-g-21" target="s2lIr1NxqmbmZ7W-PM-g-34" edge="1">
          <mxGeometry x="-1" relative="1" as="geometry">
            <mxPoint x="393.75" y="1479.96" as="targetPoint" />
          </mxGeometry>
        </mxCell>
        <mxCell id="s2lIr1NxqmbmZ7W-PM-g-23" value="[has PasqalRegister]" style="edgeStyle=orthogonalEdgeStyle;html=1;align=left;verticalAlign=top;endArrow=open;endSize=8;strokeColor=#ff0000;rounded=0;fontFamily=Helvetica;fontSize=12;fontColor=default;fontStyle=0;entryX=0.5;entryY=0;entryDx=0;entryDy=0;" parent="1" source="s2lIr1NxqmbmZ7W-PM-g-21" target="s2lIr1NxqmbmZ7W-PM-g-19" edge="1">
          <mxGeometry x="-1" relative="1" as="geometry">
            <mxPoint x="143.75" y="1559.96" as="targetPoint" />
            <mxPoint as="offset" />
          </mxGeometry>
        </mxCell>
        <mxCell id="s2lIr1NxqmbmZ7W-PM-g-24" value="create &lt;font face=&quot;Menlo&quot;&gt;QiskitSchedule&lt;/font&gt;" style="rounded=1;whiteSpace=wrap;html=1;arcSize=40;fontColor=#000000;fillColor=#ffffc0;strokeColor=#ff0000;align=center;verticalAlign=middle;fontFamily=Helvetica;fontSize=12;fontStyle=0;" parent="1" vertex="1">
          <mxGeometry x="483.75" y="1340" width="150" height="40" as="geometry" />
        </mxCell>
        <mxCell id="s2lIr1NxqmbmZ7W-PM-g-25" value="" style="edgeStyle=orthogonalEdgeStyle;html=1;verticalAlign=bottom;endArrow=open;endSize=8;strokeColor=#ff0000;rounded=0;fontFamily=Helvetica;fontSize=12;fontColor=default;fontStyle=0;entryX=1;entryY=0.5;entryDx=0;entryDy=0;" parent="1" source="s2lIr1NxqmbmZ7W-PM-g-24" target="s2lIr1NxqmbmZ7W-PM-g-26" edge="1">
          <mxGeometry relative="1" as="geometry">
            <mxPoint x="563.75" y="1420" as="targetPoint" />
          </mxGeometry>
        </mxCell>
        <mxCell id="s2lIr1NxqmbmZ7W-PM-g-26" value="populate with &lt;font face=&quot;Menlo&quot;&gt;QiskitPlay&lt;/font&gt; pulses" style="rounded=1;whiteSpace=wrap;html=1;arcSize=40;fontColor=#000000;fillColor=#ffffc0;strokeColor=#ff0000;align=center;verticalAlign=middle;fontFamily=Helvetica;fontSize=12;fontStyle=0;" parent="1" vertex="1">
          <mxGeometry x="309.75" y="1270" width="220" height="40" as="geometry" />
        </mxCell>
        <mxCell id="s2lIr1NxqmbmZ7W-PM-g-28" value="receive &lt;font face=&quot;Menlo&quot;&gt;PasqalJob&lt;/font&gt;&lt;font face=&quot;Helvetica&quot;&gt; &lt;/font&gt;&lt;font face=&quot;Helvetica&quot;&gt;result&lt;/font&gt;" style="rounded=1;whiteSpace=wrap;html=1;arcSize=40;fontColor=#000000;fillColor=#ffffc0;strokeColor=#ff0000;align=center;verticalAlign=middle;fontFamily=Helvetica;fontSize=12;fontStyle=0;" parent="1" vertex="1">
          <mxGeometry x="63.75" y="1625.02" width="160" height="40" as="geometry" />
        </mxCell>
        <mxCell id="s2lIr1NxqmbmZ7W-PM-g-29" value="" style="edgeStyle=orthogonalEdgeStyle;html=1;verticalAlign=bottom;endArrow=open;endSize=8;strokeColor=#ff0000;rounded=0;fontFamily=Helvetica;fontSize=12;fontColor=default;fontStyle=0;entryX=0.5;entryY=0;entryDx=0;entryDy=0;" parent="1" source="s2lIr1NxqmbmZ7W-PM-g-28" target="s2lIr1NxqmbmZ7W-PM-g-30" edge="1">
          <mxGeometry relative="1" as="geometry">
            <mxPoint x="68.75" y="1790" as="targetPoint" />
          </mxGeometry>
        </mxCell>
        <mxCell id="s2lIr1NxqmbmZ7W-PM-g-30" value="" style="ellipse;html=1;shape=endState;fillColor=#000000;strokeColor=#ff0000;align=center;verticalAlign=middle;fontFamily=Helvetica;fontSize=12;fontColor=default;fontStyle=0;" parent="1" vertex="1">
          <mxGeometry x="128.75" y="1710" width="30" height="30" as="geometry" />
        </mxCell>
        <mxCell id="s2lIr1NxqmbmZ7W-PM-g-32" value="define &lt;font face=&quot;Menlo&quot;&gt;PasqalRegister&lt;/font&gt;" style="rounded=1;whiteSpace=wrap;html=1;arcSize=40;fontColor=#000000;fillColor=#ffffc0;strokeColor=#ff0000;align=center;verticalAlign=middle;fontFamily=Helvetica;fontSize=12;fontStyle=0;" parent="1" vertex="1">
          <mxGeometry x="363.75" y="1689" width="160" height="40" as="geometry" />
        </mxCell>
        <mxCell id="s2lIr1NxqmbmZ7W-PM-g-33" value="" style="edgeStyle=orthogonalEdgeStyle;html=1;verticalAlign=bottom;endArrow=open;endSize=8;strokeColor=#ff0000;rounded=0;fontFamily=Helvetica;fontSize=12;fontColor=default;fontStyle=0;exitX=0;exitY=0.5;exitDx=0;exitDy=0;jumpStyle=arc;entryX=0.5;entryY=0;entryDx=0;entryDy=0;" parent="1" source="s2lIr1NxqmbmZ7W-PM-g-32" target="s2lIr1NxqmbmZ7W-PM-g-21" edge="1">
          <mxGeometry relative="1" as="geometry">
            <mxPoint x="343.75" y="1379.96" as="targetPoint" />
            <Array as="points">
              <mxPoint x="343.5" y="1709" />
              <mxPoint x="343.5" y="1420" />
              <mxPoint x="143.5" y="1420" />
            </Array>
          </mxGeometry>
        </mxCell>
        <mxCell id="s2lIr1NxqmbmZ7W-PM-g-34" value="" style="rhombus;whiteSpace=wrap;html=1;fontColor=#000000;fillColor=#ffffc0;strokeColor=#ff0000;align=center;verticalAlign=middle;fontFamily=Helvetica;fontSize=12;fontStyle=0;" parent="1" vertex="1">
          <mxGeometry x="403.75" y="1459.96" width="80" height="40" as="geometry" />
        </mxCell>
        <mxCell id="s2lIr1NxqmbmZ7W-PM-g-35" value="[no coords info]" style="edgeStyle=orthogonalEdgeStyle;html=1;align=left;verticalAlign=bottom;endArrow=open;endSize=8;strokeColor=#ff0000;rounded=0;fontFamily=Helvetica;fontSize=12;fontColor=default;fontStyle=0;entryX=0;entryY=0.5;entryDx=0;entryDy=0;" parent="1" source="s2lIr1NxqmbmZ7W-PM-g-34" target="s2lIr1NxqmbmZ7W-PM-g-39" edge="1">
          <mxGeometry x="-1" relative="1" as="geometry">
            <mxPoint x="583.75" y="1479.96" as="targetPoint" />
            <mxPoint as="offset" />
          </mxGeometry>
        </mxCell>
        <mxCell id="s2lIr1NxqmbmZ7W-PM-g-36" value="[has coords info]" style="edgeStyle=orthogonalEdgeStyle;html=1;align=left;verticalAlign=top;endArrow=open;endSize=8;strokeColor=#ff0000;rounded=0;fontFamily=Helvetica;fontSize=12;fontColor=default;fontStyle=0;entryX=0.5;entryY=0;entryDx=0;entryDy=0;" parent="1" source="s2lIr1NxqmbmZ7W-PM-g-34" target="s2lIr1NxqmbmZ7W-PM-g-45" edge="1">
          <mxGeometry x="-1" relative="1" as="geometry">
            <mxPoint x="443.75" y="1559.96" as="targetPoint" />
          </mxGeometry>
        </mxCell>
        <mxCell id="s2lIr1NxqmbmZ7W-PM-g-39" value="get register from layout &lt;font face=&quot;Menlo&quot;&gt;&amp;lt;SpecialLayout&amp;gt;.&amp;lt;lattice type&amp;gt;_register&lt;/font&gt; method" style="rounded=1;whiteSpace=wrap;html=1;arcSize=40;fontColor=#000000;fillColor=#ffffc0;strokeColor=#ff0000;align=center;verticalAlign=middle;fontFamily=Helvetica;fontSize=12;fontStyle=0;" parent="1" vertex="1">
          <mxGeometry x="583.75" y="1444.94" width="200" height="70.04" as="geometry" />
        </mxCell>
        <mxCell id="s2lIr1NxqmbmZ7W-PM-g-42" value="" style="edgeStyle=orthogonalEdgeStyle;html=1;verticalAlign=bottom;endArrow=open;endSize=8;strokeColor=#ff0000;rounded=0;fontFamily=Helvetica;fontSize=12;fontColor=default;fontStyle=0;exitX=0.5;exitY=0;exitDx=0;exitDy=0;entryX=0.5;entryY=0;entryDx=0;entryDy=0;" parent="1" source="s2lIr1NxqmbmZ7W-PM-g-39" target="s2lIr1NxqmbmZ7W-PM-g-21" edge="1">
          <mxGeometry relative="1" as="geometry">
            <mxPoint x="653.75" y="1609.96" as="targetPoint" />
            <mxPoint x="673.75" y="1549.96" as="sourcePoint" />
            <Array as="points">
              <mxPoint x="668.75" y="1419.96" />
              <mxPoint x="143.75" y="1419.96" />
            </Array>
          </mxGeometry>
        </mxCell>
        <mxCell id="s2lIr1NxqmbmZ7W-PM-g-43" value="get register from layout&#39;s &lt;font face=&quot;Menlo&quot;&gt;get_traps_from_coordinates&lt;/font&gt; method" style="rounded=1;whiteSpace=wrap;html=1;arcSize=40;fontColor=#000000;fillColor=#ffffc0;strokeColor=#ff0000;align=center;verticalAlign=middle;fontFamily=Helvetica;fontSize=12;fontStyle=0;" parent="1" vertex="1">
          <mxGeometry x="563.75" y="1584.94" width="210" height="70.04" as="geometry" />
        </mxCell>
        <mxCell id="s2lIr1NxqmbmZ7W-PM-g-45" value="" style="rhombus;whiteSpace=wrap;html=1;fontColor=#000000;fillColor=#ffffc0;strokeColor=#ff0000;align=center;verticalAlign=middle;fontFamily=Helvetica;fontSize=12;fontStyle=0;" parent="1" vertex="1">
          <mxGeometry x="403.75" y="1599.96" width="80" height="40" as="geometry" />
        </mxCell>
        <mxCell id="s2lIr1NxqmbmZ7W-PM-g-46" value="[no trap ID]" style="edgeStyle=orthogonalEdgeStyle;html=1;align=left;verticalAlign=bottom;endArrow=open;endSize=8;strokeColor=#ff0000;rounded=0;fontFamily=Helvetica;fontSize=12;fontColor=default;fontStyle=0;entryX=0;entryY=0.5;entryDx=0;entryDy=0;" parent="1" source="s2lIr1NxqmbmZ7W-PM-g-45" target="s2lIr1NxqmbmZ7W-PM-g-43" edge="1">
          <mxGeometry x="-1" relative="1" as="geometry">
            <mxPoint x="583.75" y="1619.96" as="targetPoint" />
          </mxGeometry>
        </mxCell>
        <mxCell id="s2lIr1NxqmbmZ7W-PM-g-47" value="[has trap ID]" style="edgeStyle=orthogonalEdgeStyle;html=1;align=left;verticalAlign=top;endArrow=open;endSize=8;strokeColor=#ff0000;rounded=0;fontFamily=Helvetica;fontSize=12;fontColor=default;fontStyle=0;entryX=0.5;entryY=0;entryDx=0;entryDy=0;" parent="1" source="s2lIr1NxqmbmZ7W-PM-g-45" target="s2lIr1NxqmbmZ7W-PM-g-32" edge="1">
          <mxGeometry x="-1" relative="1" as="geometry">
            <mxPoint x="443.75" y="1699.96" as="targetPoint" />
            <mxPoint as="offset" />
          </mxGeometry>
        </mxCell>
        <mxCell id="sWB14MhDj_UWIPNvyOvW-1" value="define a device" style="rounded=1;whiteSpace=wrap;html=1;arcSize=40;fontColor=#000000;fillColor=#ffffc0;strokeColor=#ff0000;align=center;verticalAlign=middle;fontFamily=Helvetica;fontSize=12;fontStyle=0;" parent="1" vertex="1">
          <mxGeometry x="84.25" y="300" width="120" height="40" as="geometry" />
        </mxCell>
        <mxCell id="sWB14MhDj_UWIPNvyOvW-2" value="" style="edgeStyle=orthogonalEdgeStyle;html=1;verticalAlign=bottom;endArrow=open;endSize=8;strokeColor=#ff0000;rounded=0;fontFamily=Helvetica;fontSize=12;fontColor=default;fontStyle=0;entryX=0.5;entryY=0;entryDx=0;entryDy=0;" parent="1" source="sWB14MhDj_UWIPNvyOvW-1" target="sWB14MhDj_UWIPNvyOvW-35" edge="1">
          <mxGeometry relative="1" as="geometry">
            <mxPoint x="144.25" y="370.0000000000001" as="targetPoint" />
          </mxGeometry>
        </mxCell>
        <mxCell id="sWB14MhDj_UWIPNvyOvW-3" value="create &lt;font face=&quot;Menlo&quot;&gt;PasqalTarget&lt;/font&gt; instance" style="rounded=1;whiteSpace=wrap;html=1;arcSize=40;fontColor=#000000;fillColor=#ffffc0;strokeColor=#ff0000;align=center;verticalAlign=middle;fontFamily=Helvetica;fontSize=12;fontStyle=0;" parent="1" vertex="1">
          <mxGeometry x="43.75" y="550" width="200" height="40" as="geometry" />
        </mxCell>
        <mxCell id="sWB14MhDj_UWIPNvyOvW-4" value="" style="edgeStyle=orthogonalEdgeStyle;html=1;verticalAlign=bottom;endArrow=open;endSize=8;strokeColor=#ff0000;rounded=0;fontFamily=Helvetica;fontSize=12;fontColor=default;fontStyle=0;entryX=0.5;entryY=0;entryDx=0;entryDy=0;" parent="1" source="sWB14MhDj_UWIPNvyOvW-3" target="sWB14MhDj_UWIPNvyOvW-5" edge="1">
          <mxGeometry relative="1" as="geometry">
            <mxPoint x="144.25" y="690" as="targetPoint" />
          </mxGeometry>
        </mxCell>
        <mxCell id="sWB14MhDj_UWIPNvyOvW-5" value="" style="rhombus;whiteSpace=wrap;html=1;fontColor=#000000;fillColor=#ffffc0;strokeColor=#ff0000;align=center;verticalAlign=middle;fontFamily=Helvetica;fontSize=12;fontStyle=0;" parent="1" vertex="1">
          <mxGeometry x="104.25" y="660" width="80" height="40" as="geometry" />
        </mxCell>
        <mxCell id="sWB14MhDj_UWIPNvyOvW-6" value="[no layout provided]" style="edgeStyle=orthogonalEdgeStyle;html=1;align=left;verticalAlign=bottom;endArrow=open;endSize=8;strokeColor=#ff0000;rounded=0;fontFamily=Helvetica;fontSize=12;fontColor=default;fontStyle=0;entryX=0;entryY=0.5;entryDx=0;entryDy=0;" parent="1" source="sWB14MhDj_UWIPNvyOvW-5" target="sWB14MhDj_UWIPNvyOvW-8" edge="1">
          <mxGeometry x="-1" relative="1" as="geometry">
            <mxPoint x="324.25" y="680" as="targetPoint" />
            <Array as="points">
              <mxPoint x="326" y="680" />
              <mxPoint x="326" y="770" />
            </Array>
          </mxGeometry>
        </mxCell>
        <mxCell id="sWB14MhDj_UWIPNvyOvW-7" value="[layout provided]" style="edgeStyle=orthogonalEdgeStyle;html=1;align=left;verticalAlign=top;endArrow=open;endSize=8;strokeColor=#ff0000;rounded=0;fontFamily=Helvetica;fontSize=12;fontColor=default;fontStyle=0;entryX=0.5;entryY=0;entryDx=0;entryDy=0;" parent="1" source="sWB14MhDj_UWIPNvyOvW-5" target="sWB14MhDj_UWIPNvyOvW-20" edge="1">
          <mxGeometry x="-1" relative="1" as="geometry">
            <mxPoint x="144.25" y="750" as="targetPoint" />
          </mxGeometry>
        </mxCell>
        <mxCell id="sWB14MhDj_UWIPNvyOvW-8" value="use device layout" style="rounded=1;whiteSpace=wrap;html=1;arcSize=40;fontColor=#000000;fillColor=#ffffc0;strokeColor=#ff0000;align=center;verticalAlign=middle;fontFamily=Helvetica;fontSize=12;fontStyle=0;" parent="1" vertex="1">
          <mxGeometry x="373.38" y="750" width="120" height="40" as="geometry" />
        </mxCell>
        <mxCell id="sWB14MhDj_UWIPNvyOvW-9" value="" style="edgeStyle=orthogonalEdgeStyle;html=1;verticalAlign=bottom;endArrow=open;endSize=8;strokeColor=#ff0000;rounded=0;fontFamily=Helvetica;fontSize=12;fontColor=default;fontStyle=0;entryX=0.5;entryY=0;entryDx=0;entryDy=0;" parent="1" source="sWB14MhDj_UWIPNvyOvW-8" target="sWB14MhDj_UWIPNvyOvW-10" edge="1">
          <mxGeometry relative="1" as="geometry">
            <mxPoint x="433.38" y="850" as="targetPoint" />
          </mxGeometry>
        </mxCell>
        <mxCell id="sWB14MhDj_UWIPNvyOvW-10" value="" style="rhombus;whiteSpace=wrap;html=1;fontColor=#000000;fillColor=#ffffc0;strokeColor=#ff0000;align=center;verticalAlign=middle;fontFamily=Helvetica;fontSize=12;fontStyle=0;" parent="1" vertex="1">
          <mxGeometry x="393.38" y="840" width="80" height="40" as="geometry" />
        </mxCell>
        <mxCell id="sWB14MhDj_UWIPNvyOvW-11" value="[no layout available]" style="edgeStyle=orthogonalEdgeStyle;html=1;align=left;verticalAlign=bottom;endArrow=open;endSize=8;strokeColor=#ff0000;rounded=0;fontFamily=Helvetica;fontSize=12;fontColor=default;fontStyle=0;entryX=0;entryY=0.5;entryDx=0;entryDy=0;" parent="1" source="sWB14MhDj_UWIPNvyOvW-10" target="sWB14MhDj_UWIPNvyOvW-13" edge="1">
          <mxGeometry x="-1" relative="1" as="geometry">
            <mxPoint x="603.38" y="860" as="targetPoint" />
          </mxGeometry>
        </mxCell>
        <mxCell id="sWB14MhDj_UWIPNvyOvW-12" value="[layout available]" style="edgeStyle=orthogonalEdgeStyle;html=1;align=left;verticalAlign=top;endArrow=open;endSize=8;strokeColor=#ff0000;rounded=0;fontFamily=Helvetica;fontSize=12;fontColor=default;fontStyle=0;entryX=0.5;entryY=0;entryDx=0;entryDy=0;exitX=0.5;exitY=1;exitDx=0;exitDy=0;" parent="1" source="sWB14MhDj_UWIPNvyOvW-10" target="fL5jCMKM3DHu35Zag9iO-26" edge="1">
          <mxGeometry x="-1" relative="1" as="geometry">
            <mxPoint x="143.99999999999977" y="950" as="targetPoint" />
            <Array as="points">
              <mxPoint x="433" y="910" />
              <mxPoint x="144" y="910" />
              <mxPoint x="144" y="980" />
            </Array>
          </mxGeometry>
        </mxCell>
        <mxCell id="sWB14MhDj_UWIPNvyOvW-13" value="define a layout through &lt;font face=&quot;Menlo&quot;&gt;PasqalLayout&lt;/font&gt;" style="rounded=1;whiteSpace=wrap;html=1;arcSize=40;fontColor=#000000;fillColor=#ffffc0;strokeColor=#ff0000;align=center;verticalAlign=middle;fontFamily=Helvetica;fontSize=12;fontStyle=0;" parent="1" vertex="1">
          <mxGeometry x="603.38" y="835" width="141.75" height="50" as="geometry" />
        </mxCell>
        <mxCell id="sWB14MhDj_UWIPNvyOvW-14" value="" style="edgeStyle=orthogonalEdgeStyle;html=1;verticalAlign=bottom;endArrow=open;endSize=8;strokeColor=#ff0000;rounded=0;fontFamily=Helvetica;fontSize=12;fontColor=default;fontStyle=0;entryX=0.5;entryY=0;entryDx=0;entryDy=0;exitX=0.5;exitY=0;exitDx=0;exitDy=0;" parent="1" source="sWB14MhDj_UWIPNvyOvW-13" target="sWB14MhDj_UWIPNvyOvW-5" edge="1">
          <mxGeometry relative="1" as="geometry">
            <mxPoint x="454.25" y="460" as="targetPoint" />
            <mxPoint x="705" y="835" as="sourcePoint" />
            <Array as="points">
              <mxPoint x="674" y="640" />
              <mxPoint x="144" y="640" />
            </Array>
          </mxGeometry>
        </mxCell>
        <mxCell id="sWB14MhDj_UWIPNvyOvW-15" value="" style="rhombus;whiteSpace=wrap;html=1;fontColor=#000000;fillColor=#ffffc0;strokeColor=#ff0000;align=center;verticalAlign=middle;fontFamily=Helvetica;fontSize=12;fontStyle=0;" parent="1" vertex="1">
          <mxGeometry x="104.25" y="820" width="80" height="40" as="geometry" />
        </mxCell>
        <mxCell id="sWB14MhDj_UWIPNvyOvW-16" value="[not valid layout]" style="edgeStyle=orthogonalEdgeStyle;html=1;align=left;verticalAlign=bottom;endArrow=open;endSize=8;strokeColor=#ff0000;rounded=0;fontFamily=Helvetica;fontSize=12;fontColor=default;fontStyle=0;entryX=0;entryY=0.5;entryDx=0;entryDy=0;" parent="1" source="sWB14MhDj_UWIPNvyOvW-15" target="sWB14MhDj_UWIPNvyOvW-8" edge="1">
          <mxGeometry x="-1" relative="1" as="geometry">
            <mxPoint x="314.25" y="880" as="targetPoint" />
            <Array as="points">
              <mxPoint x="326" y="840" />
              <mxPoint x="326" y="770" />
            </Array>
          </mxGeometry>
        </mxCell>
        <mxCell id="sWB14MhDj_UWIPNvyOvW-17" value="[valid layout for given device]" style="edgeStyle=orthogonalEdgeStyle;html=1;align=left;verticalAlign=top;endArrow=open;endSize=8;strokeColor=#ff0000;rounded=0;fontFamily=Helvetica;fontSize=12;fontColor=default;fontStyle=0;entryX=0.5;entryY=0;entryDx=0;entryDy=0;" parent="1" source="sWB14MhDj_UWIPNvyOvW-15" target="fL5jCMKM3DHu35Zag9iO-26" edge="1">
          <mxGeometry x="-1" relative="1" as="geometry">
            <mxPoint x="143.99999999999977" y="950" as="targetPoint" />
          </mxGeometry>
        </mxCell>
        <mxCell id="sWB14MhDj_UWIPNvyOvW-20" value="check layout" style="rounded=1;whiteSpace=wrap;html=1;arcSize=40;fontColor=#000000;fillColor=#ffffc0;strokeColor=#ff0000;align=center;verticalAlign=middle;fontFamily=Helvetica;fontSize=12;fontStyle=0;" parent="1" vertex="1">
          <mxGeometry x="84.25" y="750" width="120" height="40" as="geometry" />
        </mxCell>
        <mxCell id="sWB14MhDj_UWIPNvyOvW-21" value="" style="edgeStyle=orthogonalEdgeStyle;html=1;verticalAlign=bottom;endArrow=open;endSize=8;strokeColor=#ff0000;rounded=0;fontFamily=Helvetica;fontSize=12;fontColor=default;fontStyle=0;entryX=0.5;entryY=0;entryDx=0;entryDy=0;" parent="1" source="sWB14MhDj_UWIPNvyOvW-20" target="sWB14MhDj_UWIPNvyOvW-15" edge="1">
          <mxGeometry relative="1" as="geometry">
            <mxPoint x="144.25" y="830" as="targetPoint" />
          </mxGeometry>
        </mxCell>
        <mxCell id="sWB14MhDj_UWIPNvyOvW-25" value="" style="edgeStyle=orthogonalEdgeStyle;html=1;align=left;verticalAlign=top;endArrow=open;endSize=8;strokeColor=#ff0000;rounded=0;fontFamily=Helvetica;fontSize=12;fontColor=default;fontStyle=0;entryX=0.5;entryY=0;entryDx=0;entryDy=0;exitX=0.5;exitY=0;exitDx=0;exitDy=0;" parent="1" source="s2lIr1NxqmbmZ7W-PM-g-43" target="s2lIr1NxqmbmZ7W-PM-g-45" edge="1">
          <mxGeometry x="-1" relative="1" as="geometry">
            <mxPoint x="539.75" y="1614.98" as="targetPoint" />
            <mxPoint x="539.75" y="1514.98" as="sourcePoint" />
            <mxPoint as="offset" />
          </mxGeometry>
        </mxCell>
        <mxCell id="sWB14MhDj_UWIPNvyOvW-34" value="" style="edgeStyle=orthogonalEdgeStyle;html=1;verticalAlign=bottom;endArrow=open;endSize=8;strokeColor=#ff0000;rounded=0;fontFamily=Helvetica;fontSize=12;fontColor=default;fontStyle=0;exitX=0;exitY=0.5;exitDx=0;exitDy=0;" parent="1" source="s2lIr1NxqmbmZ7W-PM-g-26" edge="1">
          <mxGeometry relative="1" as="geometry">
            <mxPoint x="143.5" y="1340" as="targetPoint" />
            <mxPoint x="463.75" y="1180" as="sourcePoint" />
          </mxGeometry>
        </mxCell>
        <mxCell id="sWB14MhDj_UWIPNvyOvW-35" value="" style="rhombus;whiteSpace=wrap;html=1;fontColor=#000000;fillColor=#ffffc0;strokeColor=#ff0000;align=center;verticalAlign=middle;fontFamily=Helvetica;fontSize=12;fontStyle=0;" parent="1" vertex="1">
          <mxGeometry x="104.5" y="390" width="80" height="40" as="geometry" />
        </mxCell>
        <mxCell id="sWB14MhDj_UWIPNvyOvW-36" value="[custom device]" style="edgeStyle=orthogonalEdgeStyle;html=1;align=left;verticalAlign=bottom;endArrow=open;endSize=8;strokeColor=#ff0000;rounded=0;fontFamily=Helvetica;fontSize=12;fontColor=default;fontStyle=0;entryX=0;entryY=0.5;entryDx=0;entryDy=0;" parent="1" source="sWB14MhDj_UWIPNvyOvW-35" target="sWB14MhDj_UWIPNvyOvW-47" edge="1">
          <mxGeometry x="-1" relative="1" as="geometry">
            <mxPoint x="284.5" y="410" as="targetPoint" />
          </mxGeometry>
        </mxCell>
        <mxCell id="sWB14MhDj_UWIPNvyOvW-37" value="[pre-defined device]" style="edgeStyle=orthogonalEdgeStyle;html=1;align=left;verticalAlign=top;endArrow=open;endSize=8;strokeColor=#ff0000;rounded=0;fontFamily=Helvetica;fontSize=12;fontColor=default;fontStyle=0;entryX=0.5;entryY=0;entryDx=0;entryDy=0;" parent="1" source="sWB14MhDj_UWIPNvyOvW-35" target="sWB14MhDj_UWIPNvyOvW-3" edge="1">
          <mxGeometry x="-1" relative="1" as="geometry">
            <mxPoint x="144" y="430" as="targetPoint" />
          </mxGeometry>
        </mxCell>
        <mxCell id="sWB14MhDj_UWIPNvyOvW-47" value="create device" style="rounded=1;whiteSpace=wrap;html=1;arcSize=40;fontColor=#000000;fillColor=#ffffc0;strokeColor=#ff0000;align=center;verticalAlign=middle;fontFamily=Helvetica;fontSize=12;fontStyle=0;" parent="1" vertex="1">
          <mxGeometry x="284.5" y="390" width="120" height="40" as="geometry" />
        </mxCell>
        <mxCell id="sWB14MhDj_UWIPNvyOvW-48" value="" style="edgeStyle=orthogonalEdgeStyle;html=1;verticalAlign=bottom;endArrow=open;endSize=8;strokeColor=#ff0000;rounded=0;fontFamily=Helvetica;fontSize=12;fontColor=default;fontStyle=0;entryX=0.5;entryY=0;entryDx=0;entryDy=0;exitX=0.5;exitY=1;exitDx=0;exitDy=0;" parent="1" source="sWB14MhDj_UWIPNvyOvW-47" target="sWB14MhDj_UWIPNvyOvW-3" edge="1">
          <mxGeometry relative="1" as="geometry">
            <mxPoint x="344.25" y="430" as="targetPoint" />
          </mxGeometry>
        </mxCell>
        <mxCell id="sWB14MhDj_UWIPNvyOvW-55" value="add layout" style="rounded=1;whiteSpace=wrap;html=1;arcSize=40;fontColor=#000000;fillColor=#ffffc0;strokeColor=#ff0000;align=center;verticalAlign=middle;fontFamily=Helvetica;fontSize=12;fontStyle=0;" parent="1" vertex="1">
          <mxGeometry x="410" y="470" width="120" height="40" as="geometry" />
        </mxCell>
        <mxCell id="sWB14MhDj_UWIPNvyOvW-56" value="" style="edgeStyle=orthogonalEdgeStyle;html=1;verticalAlign=bottom;endArrow=open;endSize=8;strokeColor=#ff0000;rounded=0;fontFamily=Helvetica;fontSize=12;fontColor=default;fontStyle=0;entryX=0.5;entryY=0;entryDx=0;entryDy=0;exitX=0.5;exitY=1;exitDx=0;exitDy=0;" parent="1" source="sWB14MhDj_UWIPNvyOvW-55" target="sWB14MhDj_UWIPNvyOvW-3" edge="1">
          <mxGeometry relative="1" as="geometry">
            <mxPoint x="470.25" y="550" as="targetPoint" />
          </mxGeometry>
        </mxCell>
        <mxCell id="sWB14MhDj_UWIPNvyOvW-61" value="" style="edgeStyle=orthogonalEdgeStyle;html=1;verticalAlign=bottom;endArrow=open;endSize=8;strokeColor=#ff0000;rounded=0;fontFamily=Helvetica;fontSize=12;fontColor=default;fontStyle=0;exitX=0.5;exitY=1;exitDx=0;exitDy=0;entryX=0;entryY=0.5;entryDx=0;entryDy=0;" parent="1" source="sWB14MhDj_UWIPNvyOvW-47" target="sWB14MhDj_UWIPNvyOvW-55" edge="1">
          <mxGeometry relative="1" as="geometry">
            <mxPoint x="433.3" y="440" as="targetPoint" />
            <mxPoint x="433.3" y="380" as="sourcePoint" />
          </mxGeometry>
        </mxCell>
        <mxCell id="sWB14MhDj_UWIPNvyOvW-62" value="&lt;h1 style=&quot;margin-top: 0px;&quot;&gt;Activity diagram (core)&lt;/h1&gt;&lt;p&gt;System behavior from the first step inside the &lt;font face=&quot;Menlo&quot;&gt;qiskit-pasqal-provider&lt;/font&gt; package to the retrieval of job results from quantum instructions computation.&lt;/p&gt;" style="text;html=1;whiteSpace=wrap;overflow=hidden;rounded=0;fontFamily=Helvetica;fontSize=12;fontColor=default;fontStyle=0;" parent="1" vertex="1">
          <mxGeometry x="80" y="40" width="280" height="140" as="geometry" />
        </mxCell>
        <mxCell id="fL5jCMKM3DHu35Zag9iO-3" value="" style="rhombus;whiteSpace=wrap;html=1;fontColor=#000000;fillColor=#ffffc0;strokeColor=#ff0000;align=center;verticalAlign=middle;fontFamily=Helvetica;fontSize=12;fontStyle=0;" parent="1" vertex="1">
          <mxGeometry x="103" y="1070" width="80" height="40" as="geometry" />
        </mxCell>
        <mxCell id="fL5jCMKM3DHu35Zag9iO-4" value="[remote backend]" style="edgeStyle=orthogonalEdgeStyle;html=1;align=left;verticalAlign=bottom;endArrow=open;endSize=8;strokeColor=#ff0000;rounded=0;fontFamily=Helvetica;fontSize=12;fontColor=default;fontStyle=0;entryX=0;entryY=0.5;entryDx=0;entryDy=0;" parent="1" source="fL5jCMKM3DHu35Zag9iO-3" target="fL5jCMKM3DHu35Zag9iO-6" edge="1">
          <mxGeometry x="-1" relative="1" as="geometry">
            <mxPoint x="295.62" y="1090" as="targetPoint" />
            <mxPoint as="offset" />
          </mxGeometry>
        </mxCell>
        <mxCell id="fL5jCMKM3DHu35Zag9iO-5" value="[local backend]" style="edgeStyle=orthogonalEdgeStyle;html=1;align=left;verticalAlign=top;endArrow=open;endSize=8;strokeColor=#ff0000;rounded=0;fontFamily=Helvetica;fontSize=12;fontColor=default;fontStyle=0;entryX=0.5;entryY=0;entryDx=0;entryDy=0;" parent="1" source="fL5jCMKM3DHu35Zag9iO-3" target="fL5jCMKM3DHu35Zag9iO-10" edge="1">
          <mxGeometry x="-1" relative="1" as="geometry">
            <mxPoint x="142.62" y="1150" as="targetPoint" />
          </mxGeometry>
        </mxCell>
        <mxCell id="fL5jCMKM3DHu35Zag9iO-6" value="instantiate&amp;nbsp;&lt;font face=&quot;Menlo&quot;&gt;PasqalRemoteBackend&lt;/font&gt;" style="rounded=1;whiteSpace=wrap;html=1;arcSize=40;fontColor=#000000;fillColor=#ffffc0;strokeColor=#ff0000;align=center;verticalAlign=middle;fontFamily=Helvetica;fontSize=12;fontStyle=0;" parent="1" vertex="1">
          <mxGeometry x="304.25" y="1070" width="260" height="40" as="geometry" />
        </mxCell>
        <mxCell id="fL5jCMKM3DHu35Zag9iO-7" value="" style="edgeStyle=orthogonalEdgeStyle;html=1;verticalAlign=bottom;endArrow=open;endSize=8;strokeColor=#ff0000;rounded=0;fontFamily=Helvetica;fontSize=12;fontColor=default;fontStyle=0;entryX=0.5;entryY=0;entryDx=0;entryDy=0;" parent="1" source="fL5jCMKM3DHu35Zag9iO-6" target="s2lIr1NxqmbmZ7W-PM-g-16" edge="1">
          <mxGeometry relative="1" as="geometry">
            <mxPoint x="434.25" y="1170" as="targetPoint" />
            <Array as="points">
              <mxPoint x="434" y="1230" />
              <mxPoint x="144" y="1230" />
            </Array>
          </mxGeometry>
        </mxCell>
        <mxCell id="fL5jCMKM3DHu35Zag9iO-10" value="instantiate &lt;font face=&quot;Menlo&quot;&gt;PasqalLocalBackend&lt;/font&gt;" style="rounded=1;whiteSpace=wrap;html=1;arcSize=40;fontColor=#000000;fillColor=#ffffc0;strokeColor=#ff0000;align=center;verticalAlign=middle;fontFamily=Helvetica;fontSize=12;fontStyle=0;" parent="1" vertex="1">
          <mxGeometry x="20" y="1170" width="246" height="40" as="geometry" />
        </mxCell>
        <mxCell id="fL5jCMKM3DHu35Zag9iO-11" value="" style="edgeStyle=orthogonalEdgeStyle;html=1;verticalAlign=bottom;endArrow=open;endSize=8;strokeColor=#ff0000;rounded=0;fontFamily=Helvetica;fontSize=12;fontColor=default;fontStyle=0;entryX=0.5;entryY=0;entryDx=0;entryDy=0;" parent="1" source="fL5jCMKM3DHu35Zag9iO-10" target="s2lIr1NxqmbmZ7W-PM-g-16" edge="1">
          <mxGeometry relative="1" as="geometry">
            <mxPoint x="142.62" y="1270" as="targetPoint" />
          </mxGeometry>
        </mxCell>
        <mxCell id="fL5jCMKM3DHu35Zag9iO-26" value="define backend name" style="rounded=1;whiteSpace=wrap;html=1;arcSize=40;fontColor=#000000;fillColor=#ffffc0;strokeColor=#ff0000;align=center;verticalAlign=middle;fontFamily=Helvetica;fontSize=12;fontStyle=0;" parent="1" vertex="1">
          <mxGeometry x="82.69" y="980" width="120.62" height="40" as="geometry" />
        </mxCell>
        <mxCell id="fL5jCMKM3DHu35Zag9iO-27" value="" style="edgeStyle=orthogonalEdgeStyle;html=1;verticalAlign=bottom;endArrow=open;endSize=8;strokeColor=#ff0000;rounded=0;fontFamily=Helvetica;fontSize=12;fontColor=default;fontStyle=0;entryX=0.5;entryY=0;entryDx=0;entryDy=0;" parent="1" source="fL5jCMKM3DHu35Zag9iO-26" target="fL5jCMKM3DHu35Zag9iO-3" edge="1">
          <mxGeometry relative="1" as="geometry">
            <mxPoint x="223.13" y="1060" as="targetPoint" />
          </mxGeometry>
        </mxCell>
      </root>
    </mxGraphModel>
  </diagram>
  <diagram id="bmVimznWm5vjcGzpN40X" name="Provider pipeline">
    <mxGraphModel dx="902" dy="601" grid="1" gridSize="10" guides="1" tooltips="1" connect="1" arrows="1" fold="1" page="1" pageScale="1" pageWidth="827" pageHeight="1169" math="0" shadow="0">
      <root>
        <mxCell id="0" />
        <mxCell id="1" parent="0" />
        <mxCell id="LiWmQiV2sGYWvzlLAS5Z-32" style="edgeStyle=orthogonalEdgeStyle;rounded=0;orthogonalLoop=1;jettySize=auto;html=1;exitX=0.5;exitY=1;exitDx=0;exitDy=0;entryX=0;entryY=0.5;entryDx=0;entryDy=0;" edge="1" parent="1" source="LiWmQiV2sGYWvzlLAS5Z-4" target="LiWmQiV2sGYWvzlLAS5Z-12">
          <mxGeometry relative="1" as="geometry" />
        </mxCell>
        <mxCell id="LiWmQiV2sGYWvzlLAS5Z-4" value="auth for remote" style="whiteSpace=wrap;html=1;" vertex="1" parent="1">
          <mxGeometry x="360" y="200" width="120" height="40" as="geometry" />
        </mxCell>
        <mxCell id="LiWmQiV2sGYWvzlLAS5Z-37" style="edgeStyle=orthogonalEdgeStyle;rounded=0;orthogonalLoop=1;jettySize=auto;html=1;exitX=0.5;exitY=1;exitDx=0;exitDy=0;entryX=0;entryY=0.5;entryDx=0;entryDy=0;" edge="1" parent="1" source="LiWmQiV2sGYWvzlLAS5Z-5" target="LiWmQiV2sGYWvzlLAS5Z-34">
          <mxGeometry relative="1" as="geometry" />
        </mxCell>
        <mxCell id="LiWmQiV2sGYWvzlLAS5Z-5" value="no auth for local" style="whiteSpace=wrap;html=1;" vertex="1" parent="1">
          <mxGeometry x="120" y="200" width="120" height="40" as="geometry" />
        </mxCell>
        <mxCell id="LiWmQiV2sGYWvzlLAS5Z-6" value="" style="group" vertex="1" connectable="0" parent="1">
          <mxGeometry x="190" y="10" width="230" height="70" as="geometry" />
        </mxCell>
        <mxCell id="LiWmQiV2sGYWvzlLAS5Z-1" value="PasqalProvider" style="whiteSpace=wrap;html=1;gradientColor=#66FFB3;fillColor=#66B2FF;strokeColor=#CCCCCC;" vertex="1" parent="LiWmQiV2sGYWvzlLAS5Z-6">
          <mxGeometry x="50" y="30" width="120" height="40" as="geometry" />
        </mxCell>
        <mxCell id="LiWmQiV2sGYWvzlLAS5Z-2" value="QPP provider" style="text;html=1;align=center;verticalAlign=middle;resizable=0;points=[];autosize=1;strokeColor=none;fillColor=none;" vertex="1" parent="LiWmQiV2sGYWvzlLAS5Z-6">
          <mxGeometry x="60" width="100" height="30" as="geometry" />
        </mxCell>
        <mxCell id="LiWmQiV2sGYWvzlLAS5Z-7" value="RuntimeJobV2" style="whiteSpace=wrap;html=1;fillColor=#dae8fc;strokeColor=#6c8ebf;" vertex="1" parent="1">
          <mxGeometry x="200" y="1120" width="120" height="40" as="geometry" />
        </mxCell>
        <mxCell id="LiWmQiV2sGYWvzlLAS5Z-8" value="BackendV2" style="whiteSpace=wrap;html=1;fillColor=#dae8fc;strokeColor=#6c8ebf;" vertex="1" parent="1">
          <mxGeometry x="79.99999999999989" y="480" width="120" height="40" as="geometry" />
        </mxCell>
        <mxCell id="LiWmQiV2sGYWvzlLAS5Z-11" value="BaseSamplerV2" style="whiteSpace=wrap;html=1;fillColor=#dae8fc;strokeColor=#6c8ebf;" vertex="1" parent="1">
          <mxGeometry x="39.999999999999886" y="1040" width="120" height="40" as="geometry" />
        </mxCell>
        <mxCell id="LiWmQiV2sGYWvzlLAS5Z-16" value="" style="group" vertex="1" connectable="0" parent="1">
          <mxGeometry x="439.9999999999999" y="450" width="120" height="70" as="geometry" />
        </mxCell>
        <mxCell id="LiWmQiV2sGYWvzlLAS5Z-9" value="Target" style="whiteSpace=wrap;html=1;movable=1;resizable=1;rotatable=1;deletable=1;editable=1;locked=0;connectable=1;" vertex="1" parent="LiWmQiV2sGYWvzlLAS5Z-16">
          <mxGeometry y="30" width="120" height="40" as="geometry" />
        </mxCell>
        <mxCell id="LiWmQiV2sGYWvzlLAS5Z-10" value="(qiskit or QPP?)" style="text;html=1;align=center;verticalAlign=middle;resizable=1;points=[];autosize=1;strokeColor=none;fillColor=none;movable=1;rotatable=1;deletable=1;editable=1;locked=0;connectable=1;" vertex="1" parent="LiWmQiV2sGYWvzlLAS5Z-16">
          <mxGeometry x="5.000000000000114" width="110" height="30" as="geometry" />
        </mxCell>
        <mxCell id="LiWmQiV2sGYWvzlLAS5Z-26" style="edgeStyle=orthogonalEdgeStyle;rounded=0;orthogonalLoop=1;jettySize=auto;html=1;exitX=1;exitY=0.5;exitDx=0;exitDy=0;entryX=0.5;entryY=0;entryDx=0;entryDy=0;" edge="1" parent="1" source="LiWmQiV2sGYWvzlLAS5Z-24" target="LiWmQiV2sGYWvzlLAS5Z-4">
          <mxGeometry relative="1" as="geometry" />
        </mxCell>
        <mxCell id="LiWmQiV2sGYWvzlLAS5Z-27" style="edgeStyle=orthogonalEdgeStyle;rounded=0;orthogonalLoop=1;jettySize=auto;html=1;exitX=0;exitY=0.5;exitDx=0;exitDy=0;entryX=0.5;entryY=0;entryDx=0;entryDy=0;" edge="1" parent="1" source="LiWmQiV2sGYWvzlLAS5Z-24" target="LiWmQiV2sGYWvzlLAS5Z-5">
          <mxGeometry relative="1" as="geometry" />
        </mxCell>
        <mxCell id="LiWmQiV2sGYWvzlLAS5Z-25" style="edgeStyle=orthogonalEdgeStyle;rounded=0;orthogonalLoop=1;jettySize=auto;html=1;exitX=0.5;exitY=1;exitDx=0;exitDy=0;entryX=0.5;entryY=0;entryDx=0;entryDy=0;" edge="1" parent="1" source="LiWmQiV2sGYWvzlLAS5Z-1" target="LiWmQiV2sGYWvzlLAS5Z-24">
          <mxGeometry relative="1" as="geometry" />
        </mxCell>
        <mxCell id="LiWmQiV2sGYWvzlLAS5Z-36" style="edgeStyle=orthogonalEdgeStyle;rounded=0;orthogonalLoop=1;jettySize=auto;html=1;exitX=0.5;exitY=1;exitDx=0;exitDy=0;entryX=1;entryY=0.5;entryDx=0;entryDy=0;" edge="1" parent="1" source="LiWmQiV2sGYWvzlLAS5Z-12" target="LiWmQiV2sGYWvzlLAS5Z-34">
          <mxGeometry relative="1" as="geometry" />
        </mxCell>
        <mxCell id="LiWmQiV2sGYWvzlLAS5Z-33" value="" style="group" vertex="1" connectable="0" parent="1">
          <mxGeometry x="280" y="120" width="40" height="70" as="geometry" />
        </mxCell>
        <mxCell id="LiWmQiV2sGYWvzlLAS5Z-24" value="" style="shape=orEllipse;perimeter=ellipsePerimeter;whiteSpace=wrap;html=1;backgroundOutline=1;" vertex="1" parent="LiWmQiV2sGYWvzlLAS5Z-33">
          <mxGeometry width="40" height="40" as="geometry" />
        </mxCell>
        <mxCell id="LiWmQiV2sGYWvzlLAS5Z-28" value="or" style="text;html=1;align=center;verticalAlign=middle;resizable=0;points=[];autosize=1;strokeColor=none;fillColor=none;" vertex="1" parent="LiWmQiV2sGYWvzlLAS5Z-33">
          <mxGeometry x="5" y="40" width="30" height="30" as="geometry" />
        </mxCell>
        <mxCell id="LiWmQiV2sGYWvzlLAS5Z-87" style="edgeStyle=orthogonalEdgeStyle;rounded=0;orthogonalLoop=1;jettySize=auto;html=1;exitX=0.5;exitY=1;exitDx=0;exitDy=0;entryX=0.5;entryY=0;entryDx=0;entryDy=0;" edge="1" parent="1" source="LiWmQiV2sGYWvzlLAS5Z-34" target="LiWmQiV2sGYWvzlLAS5Z-63">
          <mxGeometry relative="1" as="geometry" />
        </mxCell>
        <mxCell id="LiWmQiV2sGYWvzlLAS5Z-34" value="ProviderService.get_backend" style="whiteSpace=wrap;html=1;gradientColor=#66FFB3;fillColor=#66B2FF;strokeColor=#CCCCCC;" vertex="1" parent="1">
          <mxGeometry x="200" y="400" width="200" height="40" as="geometry" />
        </mxCell>
        <mxCell id="LiWmQiV2sGYWvzlLAS5Z-74" style="edgeStyle=orthogonalEdgeStyle;rounded=0;orthogonalLoop=1;jettySize=auto;html=1;exitX=0.5;exitY=1;exitDx=0;exitDy=0;entryX=0.5;entryY=0;entryDx=0;entryDy=0;" edge="1" parent="1" source="LiWmQiV2sGYWvzlLAS5Z-63" target="LiWmQiV2sGYWvzlLAS5Z-45">
          <mxGeometry relative="1" as="geometry" />
        </mxCell>
        <mxCell id="LiWmQiV2sGYWvzlLAS5Z-63" value="PasqalBackend" style="whiteSpace=wrap;html=1;gradientColor=#66FFB3;fillColor=#66B2FF;strokeColor=#CCCCCC;" vertex="1" parent="1">
          <mxGeometry x="239.9999999999999" y="480" width="120" height="40" as="geometry" />
        </mxCell>
        <mxCell id="LiWmQiV2sGYWvzlLAS5Z-65" value="" style="html=1;verticalAlign=bottom;labelBackgroundColor=none;endArrow=oval;endFill=0;endSize=8;rounded=0;exitX=1;exitY=0.5;exitDx=0;exitDy=0;entryX=0;entryY=0.5;entryDx=0;entryDy=0;" edge="1" parent="1" source="LiWmQiV2sGYWvzlLAS5Z-8" target="LiWmQiV2sGYWvzlLAS5Z-63">
          <mxGeometry width="160" relative="1" as="geometry">
            <mxPoint x="250" y="390" as="sourcePoint" />
            <mxPoint x="410" y="390" as="targetPoint" />
          </mxGeometry>
        </mxCell>
        <mxCell id="LiWmQiV2sGYWvzlLAS5Z-104" style="edgeStyle=orthogonalEdgeStyle;rounded=0;orthogonalLoop=1;jettySize=auto;html=1;exitX=0.5;exitY=1;exitDx=0;exitDy=0;entryX=0.5;entryY=0;entryDx=0;entryDy=0;" edge="1" parent="1" source="LiWmQiV2sGYWvzlLAS5Z-66" target="LiWmQiV2sGYWvzlLAS5Z-70">
          <mxGeometry relative="1" as="geometry" />
        </mxCell>
        <mxCell id="LiWmQiV2sGYWvzlLAS5Z-66" value="HamiltonianGate" style="rounded=1;whiteSpace=wrap;html=1;dashed=1;strokeColor=#1CFFE0;gradientColor=#EAFFF6;fillColor=#E5F9FF;" vertex="1" parent="1">
          <mxGeometry x="479.9999999999999" y="680" width="120" height="40" as="geometry" />
        </mxCell>
        <mxCell id="LiWmQiV2sGYWvzlLAS5Z-108" style="edgeStyle=orthogonalEdgeStyle;rounded=0;orthogonalLoop=1;jettySize=auto;html=1;exitX=0.5;exitY=1;exitDx=0;exitDy=0;entryX=1;entryY=0.5;entryDx=0;entryDy=0;" edge="1" parent="1" source="LiWmQiV2sGYWvzlLAS5Z-70" target="LiWmQiV2sGYWvzlLAS5Z-99">
          <mxGeometry relative="1" as="geometry" />
        </mxCell>
        <mxCell id="LiWmQiV2sGYWvzlLAS5Z-70" value="QuantumCircuit" style="whiteSpace=wrap;html=1;fillColor=#dae8fc;strokeColor=#6c8ebf;" vertex="1" parent="1">
          <mxGeometry x="480" y="760" width="120" height="40" as="geometry" />
        </mxCell>
        <mxCell id="LiWmQiV2sGYWvzlLAS5Z-73" style="edgeStyle=orthogonalEdgeStyle;rounded=0;orthogonalLoop=1;jettySize=auto;html=1;exitX=0;exitY=0.5;exitDx=0;exitDy=0;entryX=1;entryY=0.5;entryDx=0;entryDy=0;" edge="1" parent="1" source="LiWmQiV2sGYWvzlLAS5Z-9" target="LiWmQiV2sGYWvzlLAS5Z-63">
          <mxGeometry relative="1" as="geometry" />
        </mxCell>
        <mxCell id="LiWmQiV2sGYWvzlLAS5Z-53" style="edgeStyle=orthogonalEdgeStyle;rounded=0;orthogonalLoop=1;jettySize=auto;html=1;exitX=0.5;exitY=1;exitDx=0;exitDy=0;entryX=0.5;entryY=0;entryDx=0;entryDy=0;" edge="1" parent="1" source="LiWmQiV2sGYWvzlLAS5Z-17" target="LiWmQiV2sGYWvzlLAS5Z-52">
          <mxGeometry relative="1" as="geometry" />
        </mxCell>
        <mxCell id="LiWmQiV2sGYWvzlLAS5Z-17" value="PassManager" style="whiteSpace=wrap;html=1;fillColor=#dae8fc;strokeColor=#6c8ebf;" vertex="1" parent="1">
          <mxGeometry x="79.99999999999989" y="760" width="120" height="40" as="geometry" />
        </mxCell>
        <mxCell id="LiWmQiV2sGYWvzlLAS5Z-82" style="edgeStyle=orthogonalEdgeStyle;rounded=0;orthogonalLoop=1;jettySize=auto;html=1;exitX=1;exitY=0.5;exitDx=0;exitDy=0;entryX=0.5;entryY=0;entryDx=0;entryDy=0;" edge="1" parent="1" source="LiWmQiV2sGYWvzlLAS5Z-40" target="LiWmQiV2sGYWvzlLAS5Z-78">
          <mxGeometry relative="1" as="geometry" />
        </mxCell>
        <mxCell id="LiWmQiV2sGYWvzlLAS5Z-47" value="" style="group" vertex="1" connectable="0" parent="1">
          <mxGeometry x="280" y="600" width="40" height="70" as="geometry" />
        </mxCell>
        <mxCell id="LiWmQiV2sGYWvzlLAS5Z-45" value="" style="shape=orEllipse;perimeter=ellipsePerimeter;whiteSpace=wrap;html=1;backgroundOutline=1;" vertex="1" parent="LiWmQiV2sGYWvzlLAS5Z-47">
          <mxGeometry width="40" height="40" as="geometry" />
        </mxCell>
        <mxCell id="LiWmQiV2sGYWvzlLAS5Z-46" value="or" style="text;html=1;align=center;verticalAlign=middle;resizable=0;points=[];autosize=1;strokeColor=none;fillColor=none;" vertex="1" parent="LiWmQiV2sGYWvzlLAS5Z-47">
          <mxGeometry x="5" y="40" width="30" height="30" as="geometry" />
        </mxCell>
        <mxCell id="LiWmQiV2sGYWvzlLAS5Z-49" style="edgeStyle=orthogonalEdgeStyle;rounded=0;orthogonalLoop=1;jettySize=auto;html=1;exitX=0;exitY=0.5;exitDx=0;exitDy=0;entryX=1;entryY=0.5;entryDx=0;entryDy=0;" edge="1" parent="1" source="LiWmQiV2sGYWvzlLAS5Z-45" target="LiWmQiV2sGYWvzlLAS5Z-39">
          <mxGeometry relative="1" as="geometry" />
        </mxCell>
        <mxCell id="LiWmQiV2sGYWvzlLAS5Z-50" style="edgeStyle=orthogonalEdgeStyle;rounded=0;orthogonalLoop=1;jettySize=auto;html=1;exitX=1;exitY=0.5;exitDx=0;exitDy=0;entryX=0;entryY=0.5;entryDx=0;entryDy=0;" edge="1" parent="1" source="LiWmQiV2sGYWvzlLAS5Z-45" target="LiWmQiV2sGYWvzlLAS5Z-40">
          <mxGeometry relative="1" as="geometry" />
        </mxCell>
        <mxCell id="LiWmQiV2sGYWvzlLAS5Z-51" style="edgeStyle=orthogonalEdgeStyle;rounded=0;orthogonalLoop=1;jettySize=auto;html=1;exitX=0.5;exitY=1;exitDx=0;exitDy=0;entryX=0.5;entryY=0;entryDx=0;entryDy=0;" edge="1" parent="1" source="LiWmQiV2sGYWvzlLAS5Z-39" target="LiWmQiV2sGYWvzlLAS5Z-17">
          <mxGeometry relative="1" as="geometry" />
        </mxCell>
        <mxCell id="LiWmQiV2sGYWvzlLAS5Z-81" style="edgeStyle=orthogonalEdgeStyle;rounded=0;orthogonalLoop=1;jettySize=auto;html=1;exitX=0.5;exitY=1;exitDx=0;exitDy=0;entryX=0.5;entryY=0;entryDx=0;entryDy=0;" edge="1" parent="1" source="LiWmQiV2sGYWvzlLAS5Z-52" target="LiWmQiV2sGYWvzlLAS5Z-78">
          <mxGeometry relative="1" as="geometry" />
        </mxCell>
        <mxCell id="LiWmQiV2sGYWvzlLAS5Z-52" value="PassManager.run" style="whiteSpace=wrap;html=1;fillColor=#dae8fc;strokeColor=#6c8ebf;" vertex="1" parent="1">
          <mxGeometry x="79.99999999999989" y="840" width="120" height="40" as="geometry" />
        </mxCell>
        <mxCell id="LiWmQiV2sGYWvzlLAS5Z-92" style="edgeStyle=orthogonalEdgeStyle;rounded=0;orthogonalLoop=1;jettySize=auto;html=1;exitX=0;exitY=0.5;exitDx=0;exitDy=0;entryX=0.5;entryY=0;entryDx=0;entryDy=0;" edge="1" parent="1" source="LiWmQiV2sGYWvzlLAS5Z-78" target="LiWmQiV2sGYWvzlLAS5Z-90">
          <mxGeometry relative="1" as="geometry" />
        </mxCell>
        <mxCell id="LiWmQiV2sGYWvzlLAS5Z-78" value="QuantumCircuit" style="whiteSpace=wrap;html=1;fillColor=#dae8fc;strokeColor=#6c8ebf;" vertex="1" parent="1">
          <mxGeometry x="640" y="960" width="120" height="40" as="geometry" />
        </mxCell>
        <mxCell id="LiWmQiV2sGYWvzlLAS5Z-95" style="edgeStyle=orthogonalEdgeStyle;rounded=0;orthogonalLoop=1;jettySize=auto;html=1;exitX=1;exitY=0.5;exitDx=0;exitDy=0;entryX=0;entryY=0.5;entryDx=0;entryDy=0;" edge="1" parent="1" source="LiWmQiV2sGYWvzlLAS5Z-84" target="LiWmQiV2sGYWvzlLAS5Z-90">
          <mxGeometry relative="1" as="geometry" />
        </mxCell>
        <mxCell id="LiWmQiV2sGYWvzlLAS5Z-84" value="PasqalSampler" style="whiteSpace=wrap;html=1;gradientColor=#66FFB3;fillColor=#66B2FF;strokeColor=#CCCCCC;" vertex="1" parent="1">
          <mxGeometry x="199.9999999999999" y="1040" width="120" height="40" as="geometry" />
        </mxCell>
        <mxCell id="LiWmQiV2sGYWvzlLAS5Z-85" value="" style="html=1;verticalAlign=bottom;labelBackgroundColor=none;endArrow=oval;endFill=0;endSize=8;rounded=0;exitX=1;exitY=0.5;exitDx=0;exitDy=0;entryX=0;entryY=0.5;entryDx=0;entryDy=0;" edge="1" parent="1" source="LiWmQiV2sGYWvzlLAS5Z-11" target="LiWmQiV2sGYWvzlLAS5Z-84">
          <mxGeometry width="160" relative="1" as="geometry">
            <mxPoint x="290" y="890" as="sourcePoint" />
            <mxPoint x="450" y="890" as="targetPoint" />
          </mxGeometry>
        </mxCell>
        <mxCell id="LiWmQiV2sGYWvzlLAS5Z-86" value="" style="group" vertex="1" connectable="0" parent="1">
          <mxGeometry x="359.9999999999999" y="570" width="120" height="70" as="geometry" />
        </mxCell>
        <mxCell id="LiWmQiV2sGYWvzlLAS5Z-40" value="transpile" style="whiteSpace=wrap;html=1;fillColor=#dae8fc;strokeColor=#6c8ebf;" vertex="1" parent="LiWmQiV2sGYWvzlLAS5Z-86">
          <mxGeometry y="30" width="120" height="40" as="geometry" />
        </mxCell>
        <mxCell id="LiWmQiV2sGYWvzlLAS5Z-41" value="(qiskit.compiler)" style="text;html=1;align=center;verticalAlign=middle;resizable=0;points=[];autosize=1;strokeColor=none;fillColor=none;" vertex="1" parent="LiWmQiV2sGYWvzlLAS5Z-86">
          <mxGeometry x="1.1368683772161603e-13" width="110" height="30" as="geometry" />
        </mxCell>
        <mxCell id="LiWmQiV2sGYWvzlLAS5Z-111" style="edgeStyle=orthogonalEdgeStyle;rounded=0;orthogonalLoop=1;jettySize=auto;html=1;entryX=0;entryY=0.5;entryDx=0;entryDy=0;" edge="1" parent="1" source="LiWmQiV2sGYWvzlLAS5Z-88" target="LiWmQiV2sGYWvzlLAS5Z-110">
          <mxGeometry relative="1" as="geometry" />
        </mxCell>
        <mxCell id="LiWmQiV2sGYWvzlLAS5Z-88" value="PasqalJob" style="whiteSpace=wrap;html=1;gradientColor=#66FFB3;fillColor=#66B2FF;strokeColor=#CCCCCC;" vertex="1" parent="1">
          <mxGeometry x="359.9999999999999" y="1120" width="120" height="40" as="geometry" />
        </mxCell>
        <mxCell id="LiWmQiV2sGYWvzlLAS5Z-89" value="" style="html=1;verticalAlign=bottom;labelBackgroundColor=none;endArrow=oval;endFill=0;endSize=8;rounded=0;exitX=1;exitY=0.5;exitDx=0;exitDy=0;entryX=0;entryY=0.5;entryDx=0;entryDy=0;" edge="1" parent="1" source="LiWmQiV2sGYWvzlLAS5Z-7" target="LiWmQiV2sGYWvzlLAS5Z-88">
          <mxGeometry width="160" relative="1" as="geometry">
            <mxPoint x="410" y="990" as="sourcePoint" />
            <mxPoint x="450" y="990" as="targetPoint" />
          </mxGeometry>
        </mxCell>
        <mxCell id="LiWmQiV2sGYWvzlLAS5Z-97" style="edgeStyle=orthogonalEdgeStyle;rounded=0;orthogonalLoop=1;jettySize=auto;html=1;exitX=0.5;exitY=1;exitDx=0;exitDy=0;entryX=0.5;entryY=0;entryDx=0;entryDy=0;" edge="1" parent="1" source="LiWmQiV2sGYWvzlLAS5Z-90" target="LiWmQiV2sGYWvzlLAS5Z-88">
          <mxGeometry relative="1" as="geometry" />
        </mxCell>
        <mxCell id="LiWmQiV2sGYWvzlLAS5Z-90" value="PasqalSampler.run" style="whiteSpace=wrap;html=1;gradientColor=#66FFB3;fillColor=#66B2FF;strokeColor=#CCCCCC;" vertex="1" parent="1">
          <mxGeometry x="359.9999999999999" y="1040" width="120" height="40" as="geometry" />
        </mxCell>
        <mxCell id="LiWmQiV2sGYWvzlLAS5Z-91" value="PasqalBackend.run" style="whiteSpace=wrap;html=1;gradientColor=#66FFB3;fillColor=#66B2FF;strokeColor=#CCCCCC;" vertex="1" parent="1">
          <mxGeometry x="519.9999999999999" y="1040" width="120" height="40" as="geometry" />
        </mxCell>
        <mxCell id="LiWmQiV2sGYWvzlLAS5Z-94" style="edgeStyle=orthogonalEdgeStyle;rounded=0;orthogonalLoop=1;jettySize=auto;html=1;entryX=0.5;entryY=0;entryDx=0;entryDy=0;" edge="1" parent="1" source="LiWmQiV2sGYWvzlLAS5Z-93" target="LiWmQiV2sGYWvzlLAS5Z-84">
          <mxGeometry relative="1" as="geometry" />
        </mxCell>
        <mxCell id="LiWmQiV2sGYWvzlLAS5Z-93" value="PasqalBackend" style="whiteSpace=wrap;html=1;gradientColor=#66FFB3;fillColor=#66B2FF;strokeColor=#CCCCCC;" vertex="1" parent="1">
          <mxGeometry x="199.9999999999999" y="960" width="120" height="40" as="geometry" />
        </mxCell>
        <mxCell id="LiWmQiV2sGYWvzlLAS5Z-96" value="" style="endArrow=none;startArrow=none;endFill=0;startFill=0;endSize=8;html=1;verticalAlign=bottom;labelBackgroundColor=none;strokeWidth=3;rounded=0;exitX=1;exitY=0.5;exitDx=0;exitDy=0;entryX=0;entryY=0.5;entryDx=0;entryDy=0;" edge="1" parent="1" source="LiWmQiV2sGYWvzlLAS5Z-90" target="LiWmQiV2sGYWvzlLAS5Z-91">
          <mxGeometry width="160" relative="1" as="geometry">
            <mxPoint x="460" y="1139.6599999999999" as="sourcePoint" />
            <mxPoint x="620" y="1139.6599999999999" as="targetPoint" />
          </mxGeometry>
        </mxCell>
        <mxCell id="LiWmQiV2sGYWvzlLAS5Z-98" value="" style="group" vertex="1" connectable="0" parent="1">
          <mxGeometry x="400" y="840" width="40" height="70" as="geometry" />
        </mxCell>
        <mxCell id="LiWmQiV2sGYWvzlLAS5Z-99" value="" style="shape=orEllipse;perimeter=ellipsePerimeter;whiteSpace=wrap;html=1;backgroundOutline=1;" vertex="1" parent="LiWmQiV2sGYWvzlLAS5Z-98">
          <mxGeometry width="40" height="40" as="geometry" />
        </mxCell>
        <mxCell id="LiWmQiV2sGYWvzlLAS5Z-100" value="or" style="text;html=1;align=center;verticalAlign=middle;resizable=0;points=[];autosize=1;strokeColor=none;fillColor=none;" vertex="1" parent="LiWmQiV2sGYWvzlLAS5Z-98">
          <mxGeometry x="5" y="40" width="30" height="30" as="geometry" />
        </mxCell>
        <mxCell id="LiWmQiV2sGYWvzlLAS5Z-103" style="edgeStyle=orthogonalEdgeStyle;rounded=0;orthogonalLoop=1;jettySize=auto;html=1;exitX=0;exitY=0.5;exitDx=0;exitDy=0;entryX=1;entryY=0.5;entryDx=0;entryDy=0;" edge="1" parent="1" source="LiWmQiV2sGYWvzlLAS5Z-99" target="LiWmQiV2sGYWvzlLAS5Z-52">
          <mxGeometry relative="1" as="geometry" />
        </mxCell>
        <mxCell id="LiWmQiV2sGYWvzlLAS5Z-109" style="edgeStyle=orthogonalEdgeStyle;rounded=0;orthogonalLoop=1;jettySize=auto;html=1;exitX=0.5;exitY=0;exitDx=0;exitDy=0;entryX=0.5;entryY=1;entryDx=0;entryDy=0;" edge="1" parent="1" source="LiWmQiV2sGYWvzlLAS5Z-99" target="LiWmQiV2sGYWvzlLAS5Z-40">
          <mxGeometry relative="1" as="geometry" />
        </mxCell>
        <mxCell id="LiWmQiV2sGYWvzlLAS5Z-113" style="edgeStyle=orthogonalEdgeStyle;rounded=0;orthogonalLoop=1;jettySize=auto;html=1;exitX=1;exitY=0.5;exitDx=0;exitDy=0;entryX=0;entryY=0.5;entryDx=0;entryDy=0;" edge="1" parent="1" source="LiWmQiV2sGYWvzlLAS5Z-110" target="LiWmQiV2sGYWvzlLAS5Z-112">
          <mxGeometry relative="1" as="geometry" />
        </mxCell>
        <mxCell id="LiWmQiV2sGYWvzlLAS5Z-110" value="PasqalJob.result" style="whiteSpace=wrap;html=1;gradientColor=#66FFB3;fillColor=#66B2FF;strokeColor=#CCCCCC;" vertex="1" parent="1">
          <mxGeometry x="519.9999999999999" y="1120" width="120" height="40" as="geometry" />
        </mxCell>
        <mxCell id="LiWmQiV2sGYWvzlLAS5Z-112" value="PasqalJobResult" style="rounded=1;whiteSpace=wrap;html=1;dashed=1;strokeColor=#1CFFE0;gradientColor=#EAFFF6;fillColor=#E5F9FF;" vertex="1" parent="1">
          <mxGeometry x="679.9999999999999" y="1120" width="120" height="40" as="geometry" />
        </mxCell>
        <mxCell id="UH29mtklQ2TVjAs3yJxV-1" value="RemoteConnection" style="whiteSpace=wrap;html=1;fillColor=#99FFCC;strokeColor=#82b366;" vertex="1" parent="1">
          <mxGeometry x="600" y="199.9999999999999" width="120" height="40" as="geometry" />
        </mxCell>
        <mxCell id="UH29mtklQ2TVjAs3yJxV-4" style="edgeStyle=orthogonalEdgeStyle;rounded=0;orthogonalLoop=1;jettySize=auto;html=1;exitX=0.5;exitY=1;exitDx=0;exitDy=0;entryX=1;entryY=0.5;entryDx=0;entryDy=0;" edge="1" parent="1" source="UH29mtklQ2TVjAs3yJxV-3" target="LiWmQiV2sGYWvzlLAS5Z-4">
          <mxGeometry relative="1" as="geometry" />
        </mxCell>
        <mxCell id="UH29mtklQ2TVjAs3yJxV-3" value="RemoteConfig" style="rounded=1;whiteSpace=wrap;html=1;dashed=1;strokeColor=#1CFFE0;gradientColor=#EAFFF6;fillColor=#E5F9FF;" vertex="1" parent="1">
          <mxGeometry x="479.9999999999999" y="40" width="120" height="40" as="geometry" />
        </mxCell>
        <mxCell id="UH29mtklQ2TVjAs3yJxV-6" value="" style="group" vertex="1" connectable="0" parent="1">
          <mxGeometry x="25" y="570" width="230" height="70" as="geometry" />
        </mxCell>
        <mxCell id="LiWmQiV2sGYWvzlLAS5Z-39" value="generate_pass_manager" style="whiteSpace=wrap;html=1;fillColor=#dae8fc;strokeColor=#6c8ebf;" vertex="1" parent="UH29mtklQ2TVjAs3yJxV-6">
          <mxGeometry x="15" y="30" width="200" height="40" as="geometry" />
        </mxCell>
        <mxCell id="UH29mtklQ2TVjAs3yJxV-5" value="(qiskit.transpiler.preset_passmanagers)" style="text;html=1;align=center;verticalAlign=middle;resizable=0;points=[];autosize=1;strokeColor=none;fillColor=none;" vertex="1" parent="UH29mtklQ2TVjAs3yJxV-6">
          <mxGeometry width="230" height="30" as="geometry" />
        </mxCell>
        <mxCell id="LiWmQiV2sGYWvzlLAS5Z-12" value="PasqalCloud" style="whiteSpace=wrap;html=1;fillColor=#99FFCC;strokeColor=#82b366;" vertex="1" parent="1">
          <mxGeometry x="520" y="280" width="120" height="40" as="geometry" />
        </mxCell>
        <mxCell id="UH29mtklQ2TVjAs3yJxV-2" value="" style="html=1;verticalAlign=bottom;labelBackgroundColor=none;endArrow=oval;endFill=0;endSize=8;rounded=0;exitX=0;exitY=0.5;exitDx=0;exitDy=0;entryX=0.5;entryY=0;entryDx=0;entryDy=0;edgeStyle=orthogonalEdgeStyle;" edge="1" parent="1" source="UH29mtklQ2TVjAs3yJxV-1" target="LiWmQiV2sGYWvzlLAS5Z-12">
          <mxGeometry width="160" relative="1" as="geometry">
            <mxPoint x="350" y="290" as="sourcePoint" />
            <mxPoint x="510" y="290" as="targetPoint" />
          </mxGeometry>
        </mxCell>
      </root>
    </mxGraphModel>
  </diagram>
  <diagram id="occUGz4OD9YN71GKRDjQ" name="PasqalBackend structure">
    <mxGraphModel dx="1308" dy="871" grid="1" gridSize="10" guides="1" tooltips="1" connect="1" arrows="1" fold="1" page="1" pageScale="1" pageWidth="827" pageHeight="1169" math="0" shadow="0">
      <root>
        <mxCell id="0" />
        <mxCell id="1" parent="0" />
      </root>
    </mxGraphModel>
  </diagram>
</mxfile>
